<?xml version="1.0" encoding="utf-8"?>
<!-- Generator: Adobe Illustrator 23.0.4, SVG Export Plug-In . SVG Version: 6.00 Build 0)  -->
<svg version="1.1" id="레이어_1" xmlns="http://www.w3.org/2000/svg" xmlns:xlink="http://www.w3.org/1999/xlink" x="0px"
	 y="0px" viewBox="0 0 176.2 108.7" style="enable-background:new 0 0 176.2 108.7;" xml:space="preserve">
<style type="text/css">
	.st0{fill:#FFFFFF;}
</style>
<g>
	<path d="M88.1,108.7c48.7,0,88.1-24.3,88.1-54.3c0-30-39.4-54.3-88.1-54.3S0,24.3,0,54.3C0,84.3,39.4,108.7,88.1,108.7"/>
	<path class="st0" d="M32.3,75.7c3.5,0,6.7-1.1,9.8-2.6V63.1c-2.4,2.7-6,4.6-9.6,4.6c-7.9,0-12.7-7.3-12.7-14.6
		c0-7.5,4.7-14.9,12.8-14.9c3.6,0,7.2,1.7,9.5,4.6V32.6c-2.9-1.6-6.3-2.5-9.7-2.5c-12.7,0-21.4,10.9-21.4,23.1
		C11.1,65.2,20.2,75.7,32.3,75.7 M75.2,58.6H64.7l2.4-7.8c0,0,0,0,0,0l2.4-8h0l0.1-0.2L75.2,58.6z M89.7,74.6L73.3,30.1h-6.5
		L49.9,74.6h8.9l2.7-7c1.9,2.3,4.9,3.7,8.1,3.7c3.4,0,6.5-1.6,8.4-4.1l2.7,7.4H89.7z M108.8,75.7l16.8-44.5h-9.1l-9.7,29.2h-0.1
		L96.3,31.2h-9.1l16.5,44.5H108.8z M148.3,58.5H138l4.8-15.7h0.1L148.3,58.5z M163,74.6l-16.4-44.5H140l-16.9,44.5h8.9l3.6-9.1h15
		l3.3,9.1H163z"/>
</g>
</svg>
