<svg xmlns="http://www.w3.org/2000/svg" viewBox="0 0 365 290"><title>Untitled-4</title><g id="Layer_4" data-name="Layer 4"><path d="M122.65,125.07H67V103.31h55.62V68.24h24.18V223H122.65Z"/><path d="M181.89,68.24H275v42.81L181.89,151v-21l82.23-35.07V92.43H181.89ZM298,188C298,226.4,271.85,252,232.68,252c-16.93,0-37.24-5.07-50.79-12.81V213.34h2.42c12.82,7.26,32.16,12.09,48.37,12.09,31.19,0,52-15.23,52-38.21,0-14.75-8.46-24.66-21-24.66-8,0-24.18,3.38-40.63,8.46L181.89,188V165.46L223,148.53c16-4.59,32.17-7.74,40.63-7.74C284.19,140.79,298,159.66,298,188Z"/></g></svg>