<?xml version="1.0" encoding="utf-8"?>
<!-- Generator: Adobe Illustrator 23.0.4, SVG Export Plug-In . SVG Version: 6.00 Build 0)  -->
<svg version="1.1" id="Layer_1" xmlns="http://www.w3.org/2000/svg" xmlns:xlink="http://www.w3.org/1999/xlink" x="0px" y="0px"
	 viewBox="0 0 365 290" style="enable-background:new 0 0 365 290;" xml:space="preserve">
<style type="text/css">
	.st0{stroke:#000000;stroke-width:5;stroke-miterlimit:10;}
</style>
<title>Untitled-4</title>
<g id="Layer_4">
	<path class="st0" d="M111.8,125.6H56.2v-21.8h55.6V68.8H136v154.8h-24.2V125.6z"/>
	<path class="st0" d="M197.6,112.3h-25.4l42.3-72.6h25.4L197.6,112.3z M308.9,168.4c0,32.4-26.4,53.9-65.8,53.9
		c-39.7,0-66-21.5-66-53.9c0-32.9,26.4-54.9,66-54.9C282.5,113.5,308.9,135.6,308.9,168.4z M295.6,167.2c0-17.7-21-29.5-52.5-29.5
		c-31.7,0-52.7,11.8-52.7,29.5c0,17.2,21,28.5,52.7,28.5C274.5,195.8,295.5,184.4,295.6,167.2L295.6,167.2z"/>
</g>
</svg>
