<svg xmlns="http://www.w3.org/2000/svg" viewBox="0 0 365 290"><title>Untitled-4</title><g id="Layer_4" data-name="Layer 4"><path d="M111.77,125.63H56.15V103.87h55.62V68.8H136V223.57H111.77Z"/><path d="M197.61,112.33H172.22l42.32-72.55h25.39Zm111.24,56.11c0,32.4-26.36,53.93-65.77,53.93-39.66,0-66-21.53-66-53.93,0-32.89,26.36-54.9,66-54.9C282.49,113.54,308.85,135.55,308.85,168.44Zm-13.3-1.21c0-17.66-21-29.5-52.47-29.5-31.68,0-52.72,11.84-52.72,29.5,0,17.17,21,28.53,52.72,28.53C274.51,195.76,295.55,184.4,295.55,167.23Z"/></g></svg>