<svg xmlns="http://www.w3.org/2000/svg" viewBox="0 0 365 290"><title>Untitled-4</title><g id="Layer_4" data-name="Layer 4"><path d="M123.25,126H67.63V104.24h55.62V69.18h24.19V224H123.25Z"/><path d="M297.37,179.21c0,26.12-23.22,43.53-58,43.53s-58-17.41-58-43.53c0-24.67,23.21-41.11,58-41.11S297.37,154.54,297.37,179.21Zm-4.84-95.52c0,23.94-21.28,39.9-53.2,39.9s-53.2-16-53.2-39.9c0-25.39,21.28-42.32,53.2-42.32S292.53,58.3,292.53,83.69Zm-8.46,94.79c0-10.39-17.9-17.41-44.74-17.41s-44.74,7-44.74,17.41c0,10.64,17.89,17.66,44.74,17.66S284.07,189.12,284.07,178.48Zm-4.84-94.31c0-9.67-16-16.2-39.9-16.2s-39.9,6.53-39.9,16.2c0,9.92,16,16.45,39.9,16.45S279.23,94.09,279.23,84.17Z"/></g></svg>