<?xml version="1.0" encoding="utf-8"?>
<!-- Generator: Adobe Illustrator 23.0.4, SVG Export Plug-In . SVG Version: 6.00 Build 0)  -->
<svg version="1.1" id="Layer_1" xmlns="http://www.w3.org/2000/svg" xmlns:xlink="http://www.w3.org/1999/xlink" x="0px" y="0px"
	 viewBox="0 0 365 290" style="enable-background:new 0 0 365 290;" xml:space="preserve">
<style type="text/css">
	.st0{stroke:#000000;stroke-width:5;stroke-miterlimit:10;}
</style>
<title>Untitled-4</title>
<g id="Layer_4">
	<path class="st0" d="M123.2,126H67.6v-21.8h55.6V69.2h24.2V224h-24.2V126z"/>
	<path class="st0" d="M297.4,179.2c0,26.1-23.2,43.5-58,43.5s-58-17.4-58-43.5c0-24.7,23.2-41.1,58-41.1S297.4,154.5,297.4,179.2z
		 M292.5,83.7c0,23.9-21.3,39.9-53.2,39.9s-53.2-16-53.2-39.9c0-25.4,21.3-42.3,53.2-42.3S292.5,58.3,292.5,83.7z M284.1,178.5
		c0-10.4-17.9-17.4-44.7-17.4s-44.7,7-44.7,17.4c0,10.6,17.9,17.7,44.7,17.7S284.1,189.1,284.1,178.5L284.1,178.5z M279.2,84.2
		c0-9.7-16-16.2-39.9-16.2s-39.9,6.5-39.9,16.2c0,9.9,16,16.4,39.9,16.4S279.2,94.1,279.2,84.2L279.2,84.2z"/>
</g>
</svg>
