<?xml version="1.0" encoding="utf-8"?>
<!-- Generator: Adobe Illustrator 23.0.4, SVG Export Plug-In . SVG Version: 6.00 Build 0)  -->
<svg version="1.1" id="Layer_1" xmlns="http://www.w3.org/2000/svg" xmlns:xlink="http://www.w3.org/1999/xlink" x="0px" y="0px"
	 viewBox="0 0 365 290" style="enable-background:new 0 0 365 290;" xml:space="preserve">
<style type="text/css">
	.st0{stroke:#000000;stroke-width:5;stroke-miterlimit:10;}
</style>
<title>Untitled-4</title>
<g id="Layer_4">
	<path class="st0" d="M113,126.2H57.4v-21.8H113V69.4h24.2v154.8H113V126.2z"/>
	<path class="st0" d="M171,126.7c0-32.2,26.4-53.7,66-53.7c39.4,0,65.8,21.5,65.8,53.7c0,33.1-26.4,55.1-65.8,55.1
		C197.4,181.8,171,159.8,171,126.7z M184.3,127.9c0,17.9,21,29.7,52.7,29.7c31.4,0,52.5-11.9,52.5-29.7c0-16.9-21-28.3-52.5-28.3
		C205.4,99.6,184.3,111,184.3,127.9L184.3,127.9z M282.2,183h25.4l-42.3,72.6h-25.4L282.2,183z"/>
</g>
</svg>
