<svg xmlns="http://www.w3.org/2000/svg" viewBox="0 0 365 290"><title>Untitled-4</title><g id="Layer_4" data-name="Layer 4"><path d="M113,126.19H57.36V104.43H113V69.36h24.18V224.13H113Z"/><path d="M171,126.68C171,94.51,197.37,73,237,73c39.42,0,65.78,21.52,65.78,53.69,0,33.13-26.36,55.13-65.78,55.13C197.37,181.81,171,159.81,171,126.68Zm13.3,1.21c0,17.89,21,29.74,52.72,29.74,31.44,0,52.48-11.85,52.48-29.74,0-16.93-21-28.3-52.48-28.3C205.35,99.59,184.31,111,184.31,127.89ZM282.25,183h25.39l-42.32,72.55H239.93Z"/></g></svg>