<svg xmlns="http://www.w3.org/2000/svg" viewBox="0 0 365 290"><title>Untitled-4</title><g id="Layer_4" data-name="Layer 4"><path d="M50.71,162.66l84.64-26.61c8.7-3.14,14.51-9.43,14.51-15.71,0-12.34-17.9-20.56-44.74-20.56-16,0-36.76,4.11-52,10.16H50.71V84.54C65.22,77.77,87,73.18,105.12,73.18c34.82,0,58,18.86,58,47.16A40.6,40.6,0,0,1,135.35,159l-84.64,26.6ZM174,224.32H50.71V200.14H174Z"/><path d="M314.29,148.15c0,45-24.9,75-60.45,75s-58-30-58-75,23.7-75,59.25-75S314.29,103.17,314.29,148.15Zm-13.3,0c0-29-18.38-48.37-45.94-48.37s-46,19.35-46,48.37,17.17,48.36,44.74,48.36S301,177.17,301,148.15Z"/></g></svg>