<?xml version="1.0" encoding="utf-8"?>
<!-- Generator: Adobe Illustrator 23.0.4, SVG Export Plug-In . SVG Version: 6.00 Build 0)  -->
<svg version="1.1" id="Layer_1" xmlns="http://www.w3.org/2000/svg" xmlns:xlink="http://www.w3.org/1999/xlink" x="0px" y="0px"
	 viewBox="0 0 365 290" style="enable-background:new 0 0 365 290;" xml:space="preserve">
<style type="text/css">
	.st0{stroke:#000000;stroke-width:5;stroke-miterlimit:10;}
</style>
<title>Untitled-4</title>
<g id="Layer_4">
	<path class="st0" d="M50.7,162.7l84.6-26.6c8.7-3.1,14.5-9.4,14.5-15.7c0-12.3-17.9-20.6-44.7-20.6c-16,0-36.8,4.1-52,10.2h-2.4
		V84.5c14.5-6.8,36.3-11.4,54.4-11.4c34.8,0,58,18.9,58,47.2c0.1,17.5-11.1,33.1-27.8,38.7l-84.6,26.6L50.7,162.7z M174,224.3H50.7
		v-24.2H174V224.3z"/>
	<path class="st0" d="M314.3,148.1c0,45-24.9,75-60.4,75s-58-30-58-75s23.7-75,59.2-75S314.3,103.2,314.3,148.1z M301,148.1
		c0-29-18.4-48.4-45.9-48.4s-46,19.3-46,48.4s17.2,48.4,44.7,48.4S301,177.2,301,148.1L301,148.1z"/>
</g>
</svg>
