<svg xmlns="http://www.w3.org/2000/svg" viewBox="0 0 365 290"><title>Untitled-4</title><g id="Layer_4" data-name="Layer 4"><path d="M47.68,163l84.64-26.6c8.71-3.15,14.51-9.43,14.51-15.72,0-12.33-17.89-20.56-44.74-20.56-16,0-36.75,4.11-52,10.16H47.68V84.92C62.19,78.15,84,73.55,102.09,73.55c34.83,0,58,18.87,58,47.16a40.59,40.59,0,0,1-27.81,38.69L47.68,186ZM171,224.7H47.68V200.51H171Z"/><path d="M194,163l84.64-26.6c8.71-3.15,14.51-9.43,14.51-15.72,0-12.33-17.89-20.56-44.73-20.56-16,0-36.76,4.11-52,10.16H194V84.92c14.51-6.77,36.28-11.37,54.42-11.37,34.82,0,58,18.87,58,47.16a40.59,40.59,0,0,1-27.81,38.69L194,186ZM317.32,224.7H194V200.51H317.32Z"/></g></svg>