<svg xmlns="http://www.w3.org/2000/svg" viewBox="0 0 365 290"><title>Untitled-4</title><g id="Layer_4" data-name="Layer 4"><path d="M51.31,163.22,136,136.61c8.71-3.14,14.51-9.43,14.51-15.71,0-12.34-17.9-20.56-44.74-20.56-16,0-36.76,4.11-52,10.16H51.31V85.1c14.51-6.77,36.27-11.36,54.41-11.36,34.83,0,58,18.86,58,47.16A40.59,40.59,0,0,1,136,159.59l-84.64,26.6Zm123.33,61.66H51.31V200.7H174.64Z"/><path d="M197.61,70.11h93.11v42.81l-93.11,39.9v-21l82.22-35.07V94.29H197.61ZM313.69,189.82c0,38.45-26.12,64.08-65.29,64.08-16.93,0-37.25-5.08-50.79-12.82V215.21H200c12.82,7.25,32.16,12.09,48.37,12.09,31.19,0,52-15.23,52-38.21,0-14.75-8.46-24.67-21-24.67-8,0-24.18,3.39-40.63,8.47l-41.11,16.93V167.33l41.11-16.93c16-4.6,32.17-7.74,40.63-7.74C299.91,142.66,313.69,161.52,313.69,189.82Z"/></g></svg>