<?xml version="1.0" encoding="utf-8"?>
<!-- Generator: Adobe Illustrator 23.0.4, SVG Export Plug-In . SVG Version: 6.00 Build 0)  -->
<svg version="1.1" id="Layer_1" xmlns="http://www.w3.org/2000/svg" xmlns:xlink="http://www.w3.org/1999/xlink" x="0px" y="0px"
	 viewBox="0 0 365 290" style="enable-background:new 0 0 365 290;" xml:space="preserve">
<style type="text/css">
	.st0{stroke:#000000;stroke-width:5;stroke-miterlimit:10;}
</style>
<title>Untitled-4</title>
<g id="Layer_4">
	<path class="st0" d="M51.3,163.2l84.7-26.6c8.7-3.1,14.5-9.4,14.5-15.7c0-12.3-17.9-20.6-44.7-20.6c-16,0-36.8,4.1-52,10.2h-2.5
		V85.1c14.5-6.8,36.3-11.4,54.4-11.4c34.8,0,58,18.9,58,47.2c0.1,17.5-11.1,33.1-27.7,38.7l-84.6,26.6L51.3,163.2z M174.6,224.9
		H51.3v-24.2h123.3V224.9z"/>
	<path class="st0" d="M197.6,70.1h93.1v42.8l-93.1,39.9v-21l82.2-35.1v-2.5h-82.2V70.1z M313.7,189.8c0,38.4-26.1,64.1-65.3,64.1
		c-16.9,0-37.2-5.1-50.8-12.8v-25.9h2.4c12.8,7.2,32.2,12.1,48.4,12.1c31.2,0,52-15.2,52-38.2c0-14.8-8.5-24.7-21-24.7
		c-8,0-24.2,3.4-40.6,8.5l-41.1,16.9v-22.5l41.1-16.9c16-4.6,32.2-7.7,40.6-7.7C299.9,142.7,313.7,161.5,313.7,189.8z"/>
</g>
</svg>
