<svg xmlns="http://www.w3.org/2000/svg" viewBox="0 0 365 290"><title>Untitled-4</title><g id="Layer_4" data-name="Layer 4"><path d="M39.22,163.4l84.64-26.6c8.7-3.14,14.51-9.43,14.51-15.72,0-12.33-17.9-20.55-44.74-20.55-16,0-36.76,4.11-52,10.15H39.22V85.29c14.51-6.77,36.27-11.36,54.41-11.36,34.82,0,58,18.86,58,47.15a40.59,40.59,0,0,1-27.81,38.69L39.22,186.38Zm123.33,61.67H39.22V200.89H162.55Z"/><path d="M253.23,184v-65.3h24.19V184h48.36v21.76H277.42v50.79H253.23V205.72H187.94V70.3h24.18V184Z"/></g></svg>