<svg xmlns="http://www.w3.org/2000/svg" viewBox="0 0 365 290"><title>Untitled-4</title><g id="Layer_4" data-name="Layer 4"><path d="M47.68,163.59,132.32,137c8.71-3.15,14.51-9.43,14.51-15.72,0-12.33-17.89-20.56-44.74-20.56-16,0-36.75,4.11-52,10.16H47.68V85.48C62.19,78.71,84,74.11,102.09,74.11c34.83,0,58,18.87,58,47.16A40.59,40.59,0,0,1,132.32,160l-84.64,26.6ZM171,225.26H47.68V201.07H171Z"/><path d="M317.32,70.49V94.67H194V70.49Zm-39.9,79.8c17.65,9,29,28.53,29,49.57,0,32.89-21.52,54.42-54.41,54.42-20.55,0-43.53-9.19-58-23V203.49h2.42C211.64,218,233.64,227.67,252,227.67c24.91,0,41.11-11.12,41.11-27.81a29.2,29.2,0,0,0-15.71-25.39L194,133.36V109.18Z"/></g></svg>