<?xml version="1.0" encoding="utf-8"?>
<!-- Generator: Adobe Illustrator 23.0.4, SVG Export Plug-In . SVG Version: 6.00 Build 0)  -->
<svg version="1.1" id="Layer_1" xmlns="http://www.w3.org/2000/svg" xmlns:xlink="http://www.w3.org/1999/xlink" x="0px" y="0px"
	 viewBox="0 0 365 290" style="enable-background:new 0 0 365 290;" xml:space="preserve">
<style type="text/css">
	.st0{stroke:#000000;stroke-width:5;stroke-miterlimit:10;}
</style>
<title>Untitled-4</title>
<g id="Layer_4">
	<path class="st0" d="M47.7,163.6l84.6-26.6c8.7-3.1,14.5-9.4,14.5-15.7c0-12.3-17.9-20.6-44.7-20.6c-16,0-36.8,4.1-52,10.2h-2.4
		V85.5c14.5-6.8,36.3-11.4,54.4-11.4c34.8,0,58,18.9,58,47.2c0.1,17.6-11.1,33.2-27.8,38.7l-84.6,26.6L47.7,163.6z M171,225.3H47.7
		v-24.2H171V225.3z"/>
	<path class="st0" d="M317.3,70.5v24.2H194V70.5H317.3z M277.4,150.3c17.6,9,29,28.5,29,49.6c0,32.9-21.5,54.4-54.4,54.4
		c-20.6,0-43.5-9.2-58-23v-27.8h2.4c15.2,14.5,37.2,24.2,55.6,24.2c24.9,0,41.1-11.1,41.1-27.8c-0.2-10.7-6.2-20.4-15.7-25.4
		L194,133.4v-24.2L277.4,150.3z"/>
</g>
</svg>
