<svg xmlns="http://www.w3.org/2000/svg" viewBox="0 0 365 290"><title>Untitled-4</title><g id="Layer_4" data-name="Layer 4"><path d="M40.43,163.78l84.64-26.61c8.7-3.14,14.51-9.43,14.51-15.71,0-12.34-17.9-20.56-44.74-20.56-16,0-36.76,4.11-52,10.16H40.43V85.67C54.94,78.89,76.7,74.3,94.84,74.3c34.82,0,58,18.86,58,47.16a40.6,40.6,0,0,1-27.81,38.69l-84.64,26.6Zm123.33,61.66H40.43V201.26H163.76Z"/><path d="M213.33,114.2H187.94l42.32-72.55h25.39Zm111.24,56.11c0,32.4-26.36,53.92-65.78,53.92-39.66,0-66-21.52-66-53.92,0-32.89,26.35-54.9,66-54.9C298.21,115.41,324.57,137.42,324.57,170.31Zm-13.3-1.21c0-17.66-21-29.51-52.48-29.51-31.68,0-52.71,11.85-52.71,29.51,0,17.17,21,28.53,52.71,28.53C290.23,197.63,311.27,186.27,311.27,169.1Z"/></g></svg>