<?xml version="1.0" encoding="utf-8"?>
<!-- Generator: Adobe Illustrator 23.0.4, SVG Export Plug-In . SVG Version: 6.00 Build 0)  -->
<svg version="1.1" id="Layer_1" xmlns="http://www.w3.org/2000/svg" xmlns:xlink="http://www.w3.org/1999/xlink" x="0px" y="0px"
	 viewBox="0 0 365 290" style="enable-background:new 0 0 365 290;" xml:space="preserve">
<style type="text/css">
	.st0{stroke:#000000;stroke-width:5;stroke-miterlimit:10;}
</style>
<title>Untitled-4</title>
<g id="Layer_4">
	<path class="st0" d="M55.5,164l84.6-26.6c8.7-3.1,14.5-9.4,14.5-15.7c0-12.3-17.9-20.6-44.7-20.6c-16,0-36.8,4.1-52,10.2h-2.4V85.8
		c14.5-6.8,36.3-11.4,54.5-11.4c34.8,0,58,18.9,58,47.2c0.1,17.6-11.1,33.2-27.8,38.7l-84.6,26.6L55.5,164z M178.9,225.7H55.5v-24.2
		h123.3V225.7z"/>
	<path class="st0" d="M191,70.9h118.5v54.9l-69.4,131.3h-25.4l85.1-159.6V95H191V70.9z"/>
</g>
</svg>
