<svg xmlns="http://www.w3.org/2000/svg" viewBox="0 0 365 290"><title>Untitled-4</title><g id="Layer_4" data-name="Layer 4"><path d="M51.91,164.15l84.64-26.6c8.71-3.14,14.51-9.43,14.51-15.72,0-12.33-17.89-20.56-44.73-20.56-16,0-36.76,4.12-52,10.16H51.91V86c14.51-6.77,36.28-11.37,54.42-11.37,34.82,0,58,18.87,58,47.16a40.59,40.59,0,0,1-27.82,38.69l-84.64,26.6Zm123.34,61.67H51.91V201.63H175.25Z"/><path d="M313.09,181.08c0,26.12-23.22,43.53-58,43.53s-58-17.41-58-43.53c0-24.67,23.21-41.11,58-41.11S313.09,156.41,313.09,181.08Zm-4.84-95.52c0,23.94-21.28,39.9-53.2,39.9s-53.21-16-53.21-39.9c0-25.4,21.28-42.32,53.21-42.32S308.25,60.16,308.25,85.56Zm-8.47,94.79c0-10.4-17.89-17.41-44.73-17.41s-44.74,7-44.74,17.41C210.31,191,228.2,198,255.05,198S299.78,191,299.78,180.35ZM295,86c0-9.67-16-16.2-39.9-16.2S215.14,76.37,215.14,86c0,9.91,16,16.44,39.91,16.44S295,96,295,86Z"/></g></svg>