<?xml version="1.0" encoding="utf-8"?>
<!-- Generator: Adobe Illustrator 23.0.4, SVG Export Plug-In . SVG Version: 6.00 Build 0)  -->
<svg version="1.1" id="Layer_1" xmlns="http://www.w3.org/2000/svg" xmlns:xlink="http://www.w3.org/1999/xlink" x="0px" y="0px"
	 viewBox="0 0 365 290" style="enable-background:new 0 0 365 290;" xml:space="preserve">
<style type="text/css">
	.st0{stroke:#000000;stroke-width:5;stroke-miterlimit:10;}
</style>
<title>Untitled-4</title>
<g id="Layer_4">
	<path class="st0" d="M51.9,164.1l84.6-26.6c8.7-3.1,14.5-9.4,14.5-15.7c0-12.3-17.9-20.6-44.7-20.6c-16,0-36.8,4.1-52,10.2h-2.4V86
		c14.5-6.8,36.3-11.4,54.4-11.4c34.8,0,58,18.9,58,47.2c0.1,17.6-11.2,33.2-27.8,38.7l-84.6,26.6L51.9,164.1z M175.2,225.8H51.9
		v-24.2h123.3V225.8z"/>
	<path class="st0" d="M313.1,181.1c0,26.1-23.2,43.5-58,43.5s-58-17.4-58-43.5c0-24.7,23.2-41.1,58-41.1S313.1,156.4,313.1,181.1z
		 M308.2,85.6c0,23.9-21.3,39.9-53.2,39.9s-53.2-16-53.2-39.9c0-25.4,21.3-42.3,53.2-42.3S308.2,60.2,308.2,85.6z M299.8,180.4
		c0-10.4-17.9-17.4-44.7-17.4s-44.7,7-44.7,17.4c0,10.6,17.9,17.6,44.7,17.6S299.8,191,299.8,180.4z M295,86
		c0-9.7-16-16.2-39.9-16.2s-40,6.6-40,16.2c0,9.9,16,16.4,39.9,16.4S295,96,295,86z"/>
</g>
</svg>
