<?xml version="1.0" encoding="utf-8"?>
<!-- Generator: Adobe Illustrator 23.0.4, SVG Export Plug-In . SVG Version: 6.00 Build 0)  -->
<svg version="1.1" id="Layer_1" xmlns="http://www.w3.org/2000/svg" xmlns:xlink="http://www.w3.org/1999/xlink" x="0px" y="0px"
	 viewBox="0 0 365 290" style="enable-background:new 0 0 365 290;" xml:space="preserve">
<style type="text/css">
	.st0{stroke:#000000;stroke-width:5;stroke-miterlimit:10;}
</style>
<title>Untitled-4</title>
<g id="Layer_4">
	<path class="st0" d="M41.6,164.3l84.6-26.6c8.7-3.1,14.5-9.4,14.5-15.7c0-12.3-17.9-20.6-44.7-20.6c-16,0-36.8,4.1-52,10.2h-2.4
		V86.2c14.5-6.8,36.3-11.4,54.4-11.4c34.8,0,58,18.9,58,47.2c0.1,17.6-11.2,33.2-27.8,38.7l-84.6,26.6L41.6,164.3z M165,226H41.6
		v-24.2H165V226z"/>
	<path class="st0" d="M186.7,128.6c0-32.2,26.4-53.7,66-53.7c39.4,0,65.8,21.5,65.8,53.7c0,33.1-26.4,55.1-65.8,55.1
		C213.1,183.7,186.7,161.7,186.7,128.6z M200,129.8c0,17.9,21,29.7,52.7,29.7c31.4,0,52.5-11.9,52.5-29.7c0-16.9-21-28.3-52.5-28.3
		C221.1,101.5,200,112.8,200,129.8L200,129.8z M298,184.9h25.4L281,257.4h-25.4L298,184.9z"/>
</g>
</svg>
