<svg xmlns="http://www.w3.org/2000/svg" viewBox="0 0 365 290"><title>Untitled-4</title><g id="Layer_4" data-name="Layer 4"><path d="M41.64,164.34l84.64-26.6c8.7-3.15,14.51-9.44,14.51-15.72,0-12.34-17.9-20.56-44.74-20.56-16,0-36.76,4.11-52,10.16H41.64V86.23c14.51-6.78,36.27-11.37,54.41-11.37,34.82,0,58,18.86,58,47.16a40.6,40.6,0,0,1-27.81,38.69l-84.64,26.6ZM165,226H41.64V201.82H165Z"/><path d="M186.73,128.55c0-32.17,26.36-53.69,66-53.69,39.42,0,65.78,21.52,65.78,53.69,0,33.13-26.36,55.13-65.78,55.13C213.09,183.68,186.73,161.68,186.73,128.55Zm13.3,1.21c0,17.89,21,29.74,52.72,29.74,31.44,0,52.48-11.85,52.48-29.74,0-16.93-21-28.3-52.48-28.3C221.07,101.46,200,112.83,200,129.76ZM298,184.89h25.39L281,257.44H255.65Z"/></g></svg>