<svg xmlns="http://www.w3.org/2000/svg" viewBox="0 0 365 290"><title>Untitled-4</title><g id="Layer_4" data-name="Layer 4"><path d="M124.46,66.37h93.11v42.81l-93.11,39.9V128L206.68,93V90.56H124.46ZM240.54,186.08c0,38.45-26.12,64.08-65.29,64.08-16.93,0-37.25-5.07-50.79-12.81V211.47h2.42c12.82,7.26,32.16,12.09,48.37,12.09,31.19,0,52-15.23,52-38.21,0-14.75-8.47-24.66-21-24.66-8,0-24.18,3.38-40.63,8.46l-41.11,16.93V163.59l41.11-16.93c16-4.59,32.17-7.74,40.63-7.74C226.75,138.92,240.54,157.79,240.54,186.08Z"/></g></svg>