<svg xmlns="http://www.w3.org/2000/svg" viewBox="0 0 365 290"><title>Untitled-4</title><g id="Layer_4" data-name="Layer 4"><path d="M50.71,71.42h93.1v42.8l-93.1,39.9v-21L132.93,98V95.6H50.71Zm116.07,119.7c0,38.46-26.11,64.09-65.29,64.09-16.93,0-37.24-5.08-50.78-12.82V216.52h2.41c12.82,7.25,32.17,12.09,48.37,12.09,31.2,0,52-15.24,52-38.21,0-14.75-8.46-24.67-21-24.67-8,0-24.18,3.39-40.62,8.47L50.71,191.12V168.63l41.11-16.92c16-4.6,32.16-7.74,40.62-7.74C153,144,166.78,162.83,166.78,191.12Z"/><path d="M314.29,150c0,45-24.9,75-60.45,75s-58-30-58-75,23.7-75,59.25-75S314.29,105,314.29,150ZM301,150c0-29-18.38-48.36-45.94-48.36s-46,19.34-46,48.36,17.17,48.37,44.74,48.37S301,179,301,150Z"/></g></svg>