<svg xmlns="http://www.w3.org/2000/svg" viewBox="0 0 365 290"><title>Untitled-4</title><g id="Layer_4" data-name="Layer 4"><path d="M80.93,71.61H174v42.8l-93.11,39.9v-21l82.22-35.06V95.79H80.93ZM197,191.31c0,38.45-26.12,64.09-65.29,64.09-16.93,0-37.24-5.08-50.79-12.82V216.7h2.42c12.82,7.26,32.16,12.09,48.37,12.09,31.19,0,52-15.23,52-38.2,0-14.76-8.46-24.67-21-24.67-8,0-24.18,3.38-40.63,8.46L80.93,191.31V168.82L122,151.89c16-4.59,32.17-7.73,40.63-7.73C183.23,144.16,197,163,197,191.31Z"/><path d="M259.88,128.44H204.26V106.67h55.62V71.61h24.19V226.38H259.88Z"/></g></svg>