<svg xmlns="http://www.w3.org/2000/svg" viewBox="0 0 365 290"><title>Untitled-4</title><g id="Layer_4" data-name="Layer 4"><path d="M47.68,71.79h93.11V114.6L47.68,154.5v-21L129.9,98.39V96H47.68ZM163.76,191.5c0,38.45-26.12,64.08-65.29,64.08-16.93,0-37.24-5.08-50.79-12.81V216.89H50.1C62.92,224.15,82.26,229,98.47,229c31.19,0,52-15.23,52-38.21,0-14.75-8.46-24.66-21-24.66-8,0-24.18,3.38-40.63,8.46L47.68,191.5V169l41.11-16.93c16-4.6,32.17-7.74,40.63-7.74C150,144.34,163.76,163.2,163.76,191.5Z"/><path d="M194,164.9l84.64-26.6c8.71-3.15,14.51-9.44,14.51-15.72,0-12.34-17.89-20.56-44.73-20.56-16,0-36.76,4.11-52,10.16H194V86.79C208.49,80,230.26,75.42,248.4,75.42c34.82,0,58,18.86,58,47.16a40.59,40.59,0,0,1-27.81,38.69L194,187.87Zm123.34,61.66H194V202.38H317.32Z"/></g></svg>