<svg xmlns="http://www.w3.org/2000/svg" viewBox="0 0 365 290"><title>Untitled-4</title><g id="Layer_4" data-name="Layer 4"><path d="M51.31,72h93.1v42.8l-93.1,39.91v-21l82.22-35.07V96.16H51.31Zm116.08,119.7c0,38.46-26.12,64.09-65.3,64.09-16.92,0-37.24-5.08-50.78-12.82V217.08h2.42c12.82,7.25,32.16,12.09,48.36,12.09,31.2,0,52-15.24,52-38.21,0-14.75-8.47-24.67-21-24.67-8,0-24.18,3.39-40.63,8.47L51.31,191.68V169.19l41.11-16.92c16-4.6,32.16-7.74,40.63-7.74C153.6,144.53,167.39,163.39,167.39,191.68Z"/><path d="M197.61,72h93.11v42.8l-93.11,39.91v-21l82.22-35.07V96.16H197.61Zm116.08,119.7c0,38.46-26.12,64.09-65.29,64.09-16.93,0-37.25-5.08-50.79-12.82V217.08H200c12.82,7.25,32.16,12.09,48.37,12.09,31.19,0,52-15.24,52-38.21,0-14.75-8.46-24.67-21-24.67-8,0-24.18,3.39-40.63,8.47l-41.11,16.92V169.19l41.11-16.92c16-4.6,32.17-7.74,40.63-7.74C299.91,144.53,313.69,163.39,313.69,191.68Z"/></g></svg>