<?xml version="1.0" encoding="utf-8"?>
<!-- Generator: Adobe Illustrator 23.0.4, SVG Export Plug-In . SVG Version: 6.00 Build 0)  -->
<svg version="1.1" id="Layer_1" xmlns="http://www.w3.org/2000/svg" xmlns:xlink="http://www.w3.org/1999/xlink" x="0px" y="0px"
	 viewBox="0 0 365 290" style="enable-background:new 0 0 365 290;" xml:space="preserve">
<style type="text/css">
	.st0{stroke:#000000;stroke-width:5;stroke-miterlimit:10;}
</style>
<title>Untitled-4</title>
<g id="Layer_4">
	<path class="st0" d="M51.3,72h93.1v42.8l-93.1,39.9v-21l82.2-35.1v-2.5H51.3V72z M167.4,191.7c0,38.5-26.1,64.1-65.3,64.1
		c-16.9,0-37.2-5.1-50.8-12.8v-25.9h2.4c12.8,7.2,32.2,12.1,48.4,12.1c31.2,0,52-15.2,52-38.2c0-14.8-8.5-24.7-21-24.7
		c-8,0-24.2,3.4-40.6,8.5l-41.1,16.9v-22.5l41.1-16.9c16-4.6,32.2-7.7,40.6-7.7C153.6,144.5,167.4,163.4,167.4,191.7L167.4,191.7z"
		/>
	<path class="st0" d="M197.6,72h93.1v42.8l-93.1,39.9v-21l82.2-35.1v-2.5h-82.2V72z M313.7,191.7c0,38.5-26.1,64.1-65.3,64.1
		c-16.9,0-37.2-5.1-50.8-12.8v-25.9h2.4c12.8,7.2,32.2,12.1,48.4,12.1c31.2,0,52-15.2,52-38.2c0-14.8-8.5-24.7-21-24.7
		c-8,0-24.2,3.4-40.6,8.5l-41.1,16.9v-22.5l41.1-16.9c16-4.6,32.2-7.7,40.6-7.7C299.9,144.5,313.7,163.4,313.7,191.7L313.7,191.7z"
		/>
</g>
</svg>
