<?xml version="1.0" encoding="utf-8"?>
<!-- Generator: Adobe Illustrator 23.0.4, SVG Export Plug-In . SVG Version: 6.00 Build 0)  -->
<svg version="1.1" id="Layer_1" xmlns="http://www.w3.org/2000/svg" xmlns:xlink="http://www.w3.org/1999/xlink" x="0px" y="0px"
	 viewBox="0 0 365 290" style="enable-background:new 0 0 365 290;" xml:space="preserve">
<style type="text/css">
	.st0{stroke:#000000;stroke-width:5;stroke-miterlimit:10;}
</style>
<title>Untitled-4</title>
<g id="Layer_4">
	<path class="st0" d="M39.2,72.2h93.1V115l-93.1,39.9v-21l82.2-35.1v-2.5H39.2V72.2z M155.3,191.9c0,38.5-26.1,64.1-65.3,64.1
		c-16.9,0-37.2-5.1-50.8-12.8v-25.9h2.4c12.8,7.3,32.2,12.1,48.4,12.1c31.2,0,52-15.2,52-38.2c0-14.8-8.5-24.7-21-24.7
		c-8,0-24.2,3.4-40.6,8.5l-41.1,16.9v-22.5l41.1-16.9c16-4.6,32.2-7.7,40.6-7.7C141.5,144.7,155.3,163.6,155.3,191.9z"/>
	<path class="st0" d="M253.2,185.8v-65.3h24.2v65.3h48.4v21.8h-48.4v50.8h-24.2v-50.8h-65.3V72.2h24.2v113.7H253.2z"/>
</g>
</svg>
