<svg xmlns="http://www.w3.org/2000/svg" viewBox="0 0 365 290"><title>Untitled-4</title><g id="Layer_4" data-name="Layer 4"><path d="M39.22,72.17h93.1V115l-93.1,39.9v-21l82.22-35.06V96.35H39.22ZM155.3,191.87C155.3,230.32,129.18,256,90,256c-16.93,0-37.24-5.08-50.78-12.82V217.26h2.42C54.45,224.52,73.8,229.35,90,229.35c31.2,0,52-15.23,52-38.2,0-14.76-8.47-24.67-21-24.67-8,0-24.19,3.38-40.63,8.46L39.22,191.87V169.38l41.11-16.93c16-4.59,32.16-7.73,40.63-7.73C141.51,144.72,155.3,163.58,155.3,191.87Z"/><path d="M253.23,185.83v-65.3h24.19v65.3h48.36v21.76H277.42v50.78H253.23V207.59H187.94V72.17h24.18V185.83Z"/></g></svg>