<svg xmlns="http://www.w3.org/2000/svg" viewBox="0 0 365 290"><title>Untitled-4</title><g id="Layer_4" data-name="Layer 4"><path d="M47.68,72.35h93.11v42.81l-93.11,39.9V134L129.9,99V96.54H47.68ZM163.76,192.06c0,38.45-26.12,64.08-65.29,64.08-16.93,0-37.24-5.08-50.79-12.81V217.45H50.1c12.82,7.26,32.16,12.09,48.37,12.09,31.19,0,52-15.23,52-38.21,0-14.75-8.46-24.66-21-24.66-8,0-24.18,3.38-40.63,8.46L47.68,192.06V169.57l41.11-16.93c16-4.59,32.17-7.74,40.63-7.74C150,144.9,163.76,163.76,163.76,192.06Z"/><path d="M317.32,72.35V96.54H194V72.35Zm-39.9,79.81c17.65,8.94,29,28.53,29,49.57,0,32.89-21.52,54.41-54.41,54.41-20.55,0-43.53-9.19-58-23V205.36h2.42c15.24,14.51,37.24,24.18,55.62,24.18,24.91,0,41.11-11.12,41.11-27.81a29.2,29.2,0,0,0-15.71-25.39L194,135.23V111.05Z"/></g></svg>