<?xml version="1.0" encoding="utf-8"?>
<!-- Generator: Adobe Illustrator 23.0.4, SVG Export Plug-In . SVG Version: 6.00 Build 0)  -->
<svg version="1.1" id="Layer_1" xmlns="http://www.w3.org/2000/svg" xmlns:xlink="http://www.w3.org/1999/xlink" x="0px" y="0px"
	 viewBox="0 0 365 290" style="enable-background:new 0 0 365 290;" xml:space="preserve">
<style type="text/css">
	.st0{stroke:#000000;stroke-width:5;stroke-miterlimit:10;}
</style>
<title>Untitled-4</title>
<g id="Layer_4">
	<path class="st0" d="M47.7,72.3h93.1v42.8l-93.1,39.9V134l82.2-35v-2.5H47.7V72.3z M163.8,192.1c0,38.4-26.1,64.1-65.3,64.1
		c-16.9,0-37.2-5.1-50.8-12.8v-25.9h2.4c12.8,7.3,32.2,12.1,48.4,12.1c31.2,0,52-15.2,52-38.2c0-14.8-8.5-24.7-21-24.7
		c-8,0-24.2,3.4-40.6,8.5l-41.2,16.9v-22.5l41.1-16.9c16-4.6,32.2-7.7,40.6-7.7C150,144.9,163.8,163.8,163.8,192.1z"/>
	<path class="st0" d="M317.3,72.3v24.2H194V72.3H317.3z M277.4,152.2c17.6,8.9,29,28.5,29,49.6c0,32.9-21.5,54.4-54.4,54.4
		c-20.6,0-43.5-9.2-58-23v-27.8h2.4c15.2,14.5,37.2,24.2,55.6,24.2c24.9,0,41.1-11.1,41.1-27.8c-0.2-10.7-6.2-20.4-15.7-25.4
		L194,135.2v-24.2L277.4,152.2z"/>
</g>
</svg>
