<svg xmlns="http://www.w3.org/2000/svg" viewBox="0 0 365 290"><title>Untitled-4</title><g id="Layer_4" data-name="Layer 4"><path d="M40.43,72.54h93.1v42.8l-93.1,39.91v-21l82.22-35.07V96.72H40.43Zm116.08,119.7c0,38.46-26.12,64.09-65.3,64.09-16.93,0-37.24-5.08-50.78-12.82V217.64h2.42c12.81,7.25,32.16,12.09,48.36,12.09,31.2,0,52-15.24,52-38.21,0-14.75-8.47-24.67-21-24.67-8,0-24.19,3.39-40.63,8.47L40.43,192.24V169.76l41.11-16.93c16-4.6,32.16-7.74,40.63-7.74C142.72,145.09,156.51,164,156.51,192.24Z"/><path d="M213.33,116.07H187.94l42.32-72.55h25.39Zm111.24,56.1c0,32.41-26.36,53.93-65.78,53.93-39.66,0-66-21.52-66-53.93,0-32.89,26.35-54.89,66-54.89C298.21,117.28,324.57,139.28,324.57,172.17ZM311.27,171c0-17.65-21-29.5-52.48-29.5-31.68,0-52.71,11.85-52.71,29.5,0,17.17,21,28.54,52.71,28.54C290.23,199.5,311.27,188.13,311.27,171Z"/></g></svg>