<?xml version="1.0" encoding="utf-8"?>
<!-- Generator: Adobe Illustrator 23.0.4, SVG Export Plug-In . SVG Version: 6.00 Build 0)  -->
<svg version="1.1" id="Layer_1" xmlns="http://www.w3.org/2000/svg" xmlns:xlink="http://www.w3.org/1999/xlink" x="0px" y="0px"
	 viewBox="0 0 365 290" style="enable-background:new 0 0 365 290;" xml:space="preserve">
<style type="text/css">
	.st0{stroke:#000000;stroke-width:5;stroke-miterlimit:10;}
</style>
<title>Untitled-4</title>
<g id="Layer_4">
	<path class="st0" d="M40.4,72.5h93.1v42.8l-93.1,39.9v-21l82.2-35.1v-2.5H40.4V72.5z M156.5,192.2c0,38.5-26.1,64.1-65.3,64.1
		c-16.9,0-37.2-5.1-50.8-12.8v-25.9h2.4c12.8,7.2,32.2,12.1,48.4,12.1c31.2,0,52-15.2,52-38.2c0-14.8-8.5-24.7-21-24.7
		c-8,0-24.2,3.4-40.6,8.5l-41.2,16.9v-22.5l41.1-16.9c16-4.6,32.2-7.7,40.6-7.7C142.7,145.1,156.5,164,156.5,192.2L156.5,192.2z"/>
	<path class="st0" d="M213.3,116.1h-25.4l42.3-72.6h25.4L213.3,116.1z M324.6,172.2c0,32.4-26.4,53.9-65.8,53.9
		c-39.7,0-66-21.5-66-53.9c0-32.9,26.4-54.9,66-54.9C298.2,117.3,324.6,139.3,324.6,172.2z M311.3,171c0-17.6-21-29.5-52.5-29.5
		c-31.7,0-52.7,11.9-52.7,29.5c0,17.2,21,28.5,52.7,28.5C290.2,199.5,311.3,188.1,311.3,171z"/>
</g>
</svg>
