<svg xmlns="http://www.w3.org/2000/svg" viewBox="0 0 365 290"><title>Untitled-4</title><g id="Layer_4" data-name="Layer 4"><path d="M60.38,72.73h93.1v42.8l-93.1,39.9v-21L142.6,99.33V96.91H60.38Zm116.08,119.7c0,38.45-26.12,64.09-65.3,64.09-16.93,0-37.24-5.08-50.78-12.82V217.82H62.8c12.81,7.26,32.16,12.1,48.36,12.1,31.2,0,52-15.24,52-38.21,0-14.76-8.47-24.67-21-24.67-8,0-24.19,3.39-40.63,8.46L60.38,192.43V169.94L101.49,153c16-4.59,32.16-7.73,40.63-7.73C162.67,145.28,176.46,164.14,176.46,192.43Z"/><path d="M186.13,72.73H304.62v54.89l-69.4,131.31H209.83L295,99.33V96.91H186.13Z"/></g></svg>