<?xml version="1.0" encoding="utf-8"?>
<!-- Generator: Adobe Illustrator 23.0.4, SVG Export Plug-In . SVG Version: 6.00 Build 0)  -->
<svg version="1.1" id="Layer_1" xmlns="http://www.w3.org/2000/svg" xmlns:xlink="http://www.w3.org/1999/xlink" x="0px" y="0px"
	 viewBox="0 0 365 290" style="enable-background:new 0 0 365 290;" xml:space="preserve">
<style type="text/css">
	.st0{stroke:#000000;stroke-width:5;stroke-miterlimit:10;}
</style>
<title>Untitled-4</title>
<g id="Layer_4">
	<path class="st0" d="M51.9,72.9H145v42.8l-93.1,39.9v-21l82.2-35.1v-2.4H51.9V72.9z M168,192.6c0,38.4-26.1,64.1-65.3,64.1
		c-16.9,0-37.2-5.1-50.8-12.8V218h2.4c12.8,7.3,32.2,12.1,48.4,12.1c31.2,0,52-15.2,52-38.2c0-14.8-8.5-24.7-21-24.7
		c-8,0-24.2,3.4-40.6,8.5l-41.2,16.9v-22.5L93,153.2c16-4.6,32.2-7.7,40.6-7.7C154.2,145.5,168,164.3,168,192.6z"/>
	<path class="st0" d="M313.1,183c0,26.1-23.2,43.5-58,43.5S197,209.1,197,183c0-24.7,23.2-41.1,58-41.1S313.1,158.3,313.1,183z
		 M308.2,87.5c0,23.9-21.3,39.9-53.2,39.9s-53.2-16-53.2-39.9c0-25.4,21.3-42.3,53.2-42.3S308.2,62,308.2,87.5L308.2,87.5z
		 M299.8,182.3c0-10.4-17.9-17.4-44.7-17.4s-44.7,7-44.7,17.4c0,10.6,17.9,17.6,44.7,17.6S299.8,192.9,299.8,182.3L299.8,182.3z
		 M295,87.9c0-9.7-16-16.2-39.9-16.2s-39.9,6.5-39.9,16.2c0,9.9,16,16.4,39.9,16.4S295,97.8,295,87.9z"/>
</g>
</svg>
