<svg xmlns="http://www.w3.org/2000/svg" viewBox="0 0 365 290"><title>Untitled-4</title><g id="Layer_4" data-name="Layer 4"><path d="M51.91,72.91H145v42.81l-93.11,39.9v-21l82.23-35.07V97.1H51.91ZM168,192.62c0,38.45-26.11,64.08-65.29,64.08-16.93,0-37.24-5.07-50.79-12.81V218h2.42c12.82,7.26,32.17,12.09,48.37,12.09,31.19,0,52-15.23,52-38.21,0-14.75-8.46-24.66-21-24.66-8,0-24.18,3.38-40.62,8.46L51.91,192.62V170.13L93,153.2c16-4.59,32.16-7.74,40.62-7.74C154.21,145.46,168,164.32,168,192.62Z"/><path d="M313.09,183c0,26.11-23.22,43.52-58,43.52S197,209.06,197,183c0-24.67,23.21-41.12,58-41.12S313.09,158.28,313.09,183Zm-4.84-95.53c0,23.94-21.28,39.9-53.2,39.9s-53.21-16-53.21-39.9c0-25.39,21.28-42.32,53.21-42.32S308.25,62,308.25,87.42Zm-8.47,94.8c0-10.4-17.89-17.41-44.73-17.41s-44.74,7-44.74,17.41c0,10.64,17.89,17.65,44.74,17.65S299.78,192.86,299.78,182.22ZM295,87.91c0-9.68-16-16.21-39.9-16.21s-39.91,6.53-39.91,16.21c0,9.91,16,16.44,39.91,16.44S295,97.82,295,87.91Z"/></g></svg>