<?xml version="1.0" encoding="utf-8"?>
<!-- Generator: Adobe Illustrator 23.0.4, SVG Export Plug-In . SVG Version: 6.00 Build 0)  -->
<svg version="1.1" id="Layer_1" xmlns="http://www.w3.org/2000/svg" xmlns:xlink="http://www.w3.org/1999/xlink" x="0px" y="0px"
	 viewBox="0 0 365 290" style="enable-background:new 0 0 365 290;" xml:space="preserve">
<style type="text/css">
	.st0{stroke:#000000;stroke-width:5;stroke-miterlimit:10;}
</style>
<title>Untitled-4</title>
<g id="Layer_4">
	<path class="st0" d="M61.3,73.1h93.1v42.8l-93.1,39.9v-21l82.2-35.1v-2.4H61.3V73.1z M177.4,192.8c0,38.4-26.1,64.1-65.3,64.1
		c-16.9,0-37.2-5.1-50.8-12.8v-25.9h2.4c12.8,7.2,32.2,12.1,48.4,12.1c31.2,0,52-15.2,52-38.2c0-14.8-8.5-24.7-21-24.7
		c-8,0-24.2,3.4-40.6,8.5l-41.1,16.9v-22.5l41.1-16.9c16-4.6,32.2-7.7,40.6-7.7C163.6,145.6,177.4,164.5,177.4,192.8z"/>
	<path class="st0" d="M187,130.4c0-32.2,26.4-53.7,66-53.7c39.4,0,65.8,21.5,65.8,53.7c0,33.1-26.4,55.1-65.8,55.1
		C213.4,185.6,187,163.5,187,130.4z M200.4,131.6c0,17.9,21,29.8,52.7,29.8c31.4,0,52.5-11.9,52.5-29.8c0-16.9-21-28.3-52.5-28.3
		C221.4,103.3,200.4,114.7,200.4,131.6L200.4,131.6z M298.3,186.8h25.4l-42.3,72.5H256L298.3,186.8z"/>
</g>
</svg>
