<svg xmlns="http://www.w3.org/2000/svg" viewBox="0 0 365 290"><title>Untitled-4</title><g id="Layer_4" data-name="Layer 4"><path d="M124.46,73.1h93.11v42.8l-93.11,39.91v-21L206.68,99.7V97.28H124.46ZM240.54,192.81c0,38.45-26.12,64.08-65.29,64.08-16.93,0-37.25-5.08-50.79-12.82V218.2h2.42c12.82,7.25,32.16,12.09,48.37,12.09,31.19,0,52-15.24,52-38.21,0-14.75-8.47-24.67-21-24.67-8,0-24.18,3.39-40.63,8.47l-41.11,16.93V170.32l41.11-16.93c16-4.6,32.17-7.74,40.63-7.74C226.75,145.65,240.54,164.51,240.54,192.81Z"/><path d="M114.18,130.41c0-32.16,26.36-53.68,66-53.68,39.42,0,65.78,21.52,65.78,53.68,0,33.13-26.36,55.14-65.78,55.14C140.54,185.55,114.18,163.54,114.18,130.41Zm13.3,1.21c0,17.9,21,29.75,52.72,29.75,31.44,0,52.48-11.85,52.48-29.75,0-16.92-21-28.29-52.48-28.29C148.52,103.33,127.48,114.7,127.48,131.62Zm97.94,55.14h25.4L208.5,259.31H183.1Z"/></g></svg>