<svg xmlns="http://www.w3.org/2000/svg" viewBox="0 0 365 290"><title>Untitled-4</title><g id="Layer_4" data-name="Layer 4"><path d="M106.93,187.32V122h24.18v65.29h48.37v21.76H131.11v50.79H106.93V209.08H41.64V73.66H65.82V187.32Z"/><path d="M200,166.76l84.64-26.6c8.71-3.14,14.51-9.43,14.51-15.72,0-12.33-17.9-20.55-44.74-20.55-16,0-36.76,4.11-52,10.16H200V88.65c14.51-6.77,36.27-11.36,54.41-11.36,34.82,0,58,18.86,58,47.15a40.59,40.59,0,0,1-27.81,38.7L200,189.74Zm123.33,61.67H200V204.25H323.36Z"/></g></svg>