<svg xmlns="http://www.w3.org/2000/svg" viewBox="0 0 365 290"><title>Untitled-4</title><g id="Layer_4" data-name="Layer 4"><path d="M110.56,187.51v-65.3h24.18v65.3h48.37v21.76H134.74v50.78H110.56V209.27H45.27V73.85H69.45V187.51Z"/><path d="M203.66,73.85h93.1v42.8l-93.1,39.9v-21l82.22-35.06V98H203.66Zm116.07,119.7c0,38.45-26.11,64.09-65.29,64.09-16.93,0-37.24-5.08-50.78-12.82V218.94h2.42c12.81,7.26,32.16,12.1,48.36,12.1,31.2,0,52-15.24,52-38.21,0-14.75-8.46-24.67-21-24.67-8,0-24.19,3.39-40.63,8.46l-41.11,16.93V171.06l41.11-16.93c16-4.59,32.16-7.73,40.63-7.73C306,146.4,319.73,165.26,319.73,193.55Z"/></g></svg>