<svg xmlns="http://www.w3.org/2000/svg" viewBox="0 0 365 290"><title>Untitled-4</title><g id="Layer_4" data-name="Layer 4"><path d="M108.14,187.88V122.59h24.18v65.29h48.37v21.77H132.32v50.78H108.14V209.65H42.85V74.22H67V187.88Z"/><path d="M322.15,74.22V98.4H198.82V74.22ZM282.25,154c17.66,8.95,29,28.54,29,49.58,0,32.89-21.52,54.41-54.41,54.41-20.56,0-43.53-9.19-58-23V207.23h2.42c15.23,14.51,37.24,24.18,55.62,24.18,24.91,0,41.11-11.12,41.11-27.81a29.2,29.2,0,0,0-15.72-25.39L198.82,137.1V112.91Z"/></g></svg>