<?xml version="1.0" encoding="utf-8"?>
<!-- Generator: Adobe Illustrator 23.0.4, SVG Export Plug-In . SVG Version: 6.00 Build 0)  -->
<svg version="1.1" id="Layer_1" xmlns="http://www.w3.org/2000/svg" xmlns:xlink="http://www.w3.org/1999/xlink" x="0px" y="0px"
	 viewBox="0 0 370.6 294.5" style="enable-background:new 0 0 370.6 294.5;" xml:space="preserve">
<style type="text/css">
	.st0{stroke:#000000;stroke-width:5;stroke-miterlimit:10;}
</style>
<title>Untitled-4</title>
<g id="Layer_4">
	<path class="st0" d="M102.5,190.3V125h24.2v65.3h48.4v21.8h-48.4v50.8h-24.2v-50.8H37.2V76.7h24.2v113.7H102.5z"/>
	<path class="st0" d="M222.2,120.2h-25.4l42.3-72.6h25.4L222.2,120.2z M333.4,176.3c0,32.4-26.4,53.9-65.8,53.9
		c-39.7,0-66-21.5-66-53.9c0-32.9,26.4-54.9,66-54.9C307.1,121.4,333.4,143.4,333.4,176.3z M320.1,175.1c0-17.6-21-29.5-52.5-29.5
		c-31.7,0-52.7,11.9-52.7,29.5c0,17.2,21,28.5,52.7,28.5C299.1,203.6,320.1,192.2,320.1,175.1L320.1,175.1z"/>
</g>
</svg>
