<svg xmlns="http://www.w3.org/2000/svg" viewBox="0 0 370.65 294.49"><title>Untitled-4</title><g id="Layer_4" data-name="Layer 4"><path d="M102.5,190.31V125h24.18v65.29h48.37v21.76H126.68v50.79H102.5V212.07H37.21V76.65H61.39V190.31Z"/><path d="M222.2,120.18H196.81l42.32-72.55h25.39Zm111.24,56.1c0,32.41-26.36,53.93-65.78,53.93-39.66,0-66-21.52-66-53.93,0-32.89,26.36-54.89,66-54.89C307.08,121.39,333.44,143.39,333.44,176.28Zm-13.3-1.21c0-17.65-21-29.5-52.48-29.5-31.68,0-52.72,11.85-52.72,29.5,0,17.18,21,28.54,52.72,28.54C299.1,203.61,320.14,192.25,320.14,175.07Z"/></g></svg>