<svg xmlns="http://www.w3.org/2000/svg" viewBox="0 0 370.65 294.49"><title>Untitled-4</title><g id="Layer_4" data-name="Layer 4"><path d="M114,182.68V117.39h24.18v65.29h48.37v21.77H138.17v50.78H114V204.45H48.69V69H72.88V182.68Z"/><path d="M322,179.06c0,26.11-23.21,43.53-58,43.53s-58-17.42-58-43.53c0-24.67,23.21-41.12,58-41.12S322,154.39,322,179.06Zm-4.83-95.53c0,24-21.28,39.91-53.21,39.91s-53.2-16-53.2-39.91c0-25.39,21.28-42.32,53.2-42.32S317.12,58.14,317.12,83.53Zm-8.47,94.8c0-10.4-17.89-17.41-44.74-17.41s-44.73,7-44.73,17.41c0,10.64,17.89,17.65,44.73,17.65S308.65,189,308.65,178.33ZM303.82,84c0-9.68-16-16.2-39.91-16.2S224,74.34,224,84c0,9.91,16,16.44,39.9,16.44S303.82,93.93,303.82,84Z"/></g></svg>