<?xml version="1.0" encoding="utf-8"?>
<!-- Generator: Adobe Illustrator 23.0.4, SVG Export Plug-In . SVG Version: 6.00 Build 0)  -->
<svg version="1.1" id="Layer_1" xmlns="http://www.w3.org/2000/svg" xmlns:xlink="http://www.w3.org/1999/xlink" x="0px" y="0px"
	 viewBox="0 0 370.6 294.5" style="enable-background:new 0 0 370.6 294.5;" xml:space="preserve">
<style type="text/css">
	.st0{stroke:#000000;stroke-width:5;stroke-miterlimit:10;}
</style>
<title>Untitled-4</title>
<g id="Layer_4">
	<path class="st0" d="M114,182.7v-65.3h24.2v65.3h48.4v21.8h-48.4v50.8H114v-50.8H48.7V69h24.2v113.7H114z"/>
	<path class="st0" d="M322,179.1c0,26.1-23.2,43.5-58,43.5s-58-17.4-58-43.5c0-24.7,23.2-41.1,58-41.1S322,154.4,322,179.1z
		 M317.2,83.5c0,24-21.3,39.9-53.2,39.9s-53.2-16-53.2-39.9c0-25.4,21.3-42.3,53.2-42.3S317.1,58.1,317.2,83.5L317.2,83.5z
		 M308.7,178.3c0-10.4-17.9-17.4-44.7-17.4s-44.7,7-44.7,17.4c0,10.6,17.9,17.6,44.7,17.6S308.6,189,308.7,178.3L308.7,178.3z
		 M303.8,84c0-9.7-16-16.2-39.9-16.2S224,74.3,224,84c0,9.9,16,16.4,39.9,16.4S303.8,93.9,303.8,84z"/>
</g>
</svg>
