<?xml version="1.0" encoding="utf-8"?>
<!-- Generator: Adobe Illustrator 23.0.4, SVG Export Plug-In . SVG Version: 6.00 Build 0)  -->
<svg version="1.1" id="Layer_1" xmlns="http://www.w3.org/2000/svg" xmlns:xlink="http://www.w3.org/1999/xlink" x="0px" y="0px"
	 viewBox="0 0 370.6 294.5" style="enable-background:new 0 0 370.6 294.5;" xml:space="preserve">
<style type="text/css">
	.st0{stroke:#000000;stroke-width:5;stroke-miterlimit:10;}
</style>
<title>Untitled-4</title>
<g id="Layer_4">
	<path class="st0" d="M108.5,182.9v-65.3h24.2v65.3h48.4v21.8h-48.4v50.8h-24.2v-50.8H43.2V69.2h24.2v113.7H108.5z"/>
	<path class="st0" d="M190.8,126.5c0-32.2,26.4-53.7,66-53.7c39.4,0,65.8,21.5,65.8,53.7c0,33.1-26.4,55.1-65.8,55.1
		C217.1,181.7,190.8,159.6,190.8,126.5z M204.1,127.7c0,17.9,21,29.8,52.7,29.8c31.4,0,52.5-11.9,52.5-29.8
		c0-16.9-21-28.3-52.5-28.3C225.1,99.4,204.1,110.8,204.1,127.7z M302,182.9h25.4l-42.3,72.6h-25.4L302,182.9z"/>
</g>
</svg>
