<svg xmlns="http://www.w3.org/2000/svg" viewBox="0 0 370.65 294.49"><title>Untitled-4</title><g id="Layer_4" data-name="Layer 4"><path d="M108.54,182.87V117.58h24.19v65.29h48.36v21.77H132.73v50.78H108.54V204.64H43.25V69.21H67.43V182.87Z"/><path d="M190.76,126.52c0-32.16,26.36-53.68,66-53.68,39.42,0,65.78,21.52,65.78,53.68,0,33.13-26.36,55.14-65.78,55.14C217.12,181.66,190.76,159.65,190.76,126.52Zm13.3,1.21c0,17.9,21,29.75,52.72,29.75,31.44,0,52.48-11.85,52.48-29.75,0-16.92-21-28.29-52.48-28.29C225.1,99.44,204.06,110.81,204.06,127.73ZM302,182.87h25.4l-42.32,72.55h-25.4Z"/></g></svg>