<svg xmlns="http://www.w3.org/2000/svg" viewBox="0 0 370.65 294.49"><title>Untitled-4</title><g id="Layer_4" data-name="Layer 4"><path d="M178.07,68.4V92.58H54.74V68.4Zm-39.9,79.8c17.65,9,29,28.54,29,49.58,0,32.88-21.52,54.41-54.41,54.41-20.56,0-43.53-9.19-58-23V201.4h2.42c15.23,14.51,37.24,24.19,55.62,24.19,24.91,0,41.11-11.13,41.11-27.81a29.23,29.23,0,0,0-15.72-25.4L54.74,131.27V107.09Z"/><path d="M315.91,147c0,45-24.91,75-60.46,75s-58-30-58-75,23.7-75,59.25-75S315.91,102,315.91,147Zm-13.3,0c0-29-18.38-48.36-45.95-48.36s-46,19.34-46,48.36,17.17,48.37,44.74,48.37S302.61,176,302.61,147Z"/></g></svg>