<?xml version="1.0" encoding="utf-8"?>
<!-- Generator: Adobe Illustrator 23.0.4, SVG Export Plug-In . SVG Version: 6.00 Build 0)  -->
<svg version="1.1" id="Layer_1" xmlns="http://www.w3.org/2000/svg" xmlns:xlink="http://www.w3.org/1999/xlink" x="0px" y="0px"
	 viewBox="0 0 370.6 294.5" style="enable-background:new 0 0 370.6 294.5;" xml:space="preserve">
<style type="text/css">
	.st0{stroke:#000000;stroke-width:5;stroke-miterlimit:10;}
</style>
<title>Untitled-4</title>
<g id="Layer_4">
	<path class="st0" d="M178.1,68.4v24.2H54.7V68.4H178.1z M138.2,148.2c17.6,9,29,28.5,29,49.6c0,32.9-21.5,54.4-54.4,54.4
		c-20.6,0-43.5-9.2-58-23v-27.8h2.4c15.2,14.5,37.2,24.2,55.6,24.2c24.9,0,41.1-11.1,41.1-27.8c-0.2-10.7-6.2-20.5-15.7-25.4
		l-83.4-41.1v-24.2L138.2,148.2z"/>
	<path class="st0" d="M315.9,147c0,45-24.9,75-60.5,75s-58-30-58-75s23.7-75,59.2-75S315.9,102,315.9,147z M302.6,147
		c0-29-18.4-48.4-46-48.4s-46,19.3-46,48.4s17.2,48.4,44.7,48.4S302.6,176,302.6,147L302.6,147z"/>
</g>
</svg>
