<svg xmlns="http://www.w3.org/2000/svg" viewBox="0 0 370.65 294.49"><title>Untitled-4</title><g id="Layer_4" data-name="Layer 4"><path d="M175.05,66.77V91H51.72V66.77Zm-39.9,79.8c17.65,9,29,28.54,29,49.58,0,32.89-21.53,54.41-54.41,54.41-20.56,0-43.53-9.19-58-23V199.78h2.41C69.37,214.29,91.38,224,109.76,224c24.9,0,41.11-11.12,41.11-27.81a29.2,29.2,0,0,0-15.72-25.39L51.72,129.65V105.46Z"/><path d="M195.6,159.87l84.64-26.6c8.7-3.14,14.51-9.43,14.51-15.71C294.75,105.22,276.85,97,250,97c-16,0-36.76,4.11-52,10.16H195.6V81.76C210.11,75,231.87,70.4,250,70.4c34.82,0,58,18.86,58,47.16a40.6,40.6,0,0,1-27.81,38.69l-84.64,26.6Zm123.33,61.67H195.6V197.36H318.93Z"/></g></svg>