<svg xmlns="http://www.w3.org/2000/svg" viewBox="0 0 370.65 294.49"><title>Untitled-4</title><g id="Layer_4" data-name="Layer 4"><path d="M178.68,68V92.14H55.34V68Zm-39.91,79.8c17.66,9,29,28.54,29,49.58,0,32.89-21.52,54.41-54.41,54.41-20.55,0-43.53-9.19-58-23V201h2.42C73,215.47,95,225.15,113.38,225.15c24.91,0,41.11-11.13,41.11-27.81a29.21,29.21,0,0,0-15.72-25.4L55.34,130.83V106.65Z"/><path d="M199.22,68h93.11v42.8l-93.11,39.9v-21l82.23-35.06V92.14H199.22ZM315.3,187.66c0,38.45-26.11,64.09-65.29,64.09-16.93,0-37.24-5.08-50.79-12.82V213.05h2.42c12.82,7.26,32.17,12.1,48.37,12.1,31.19,0,52-15.24,52-38.21,0-14.75-8.46-24.67-21-24.67-8,0-24.18,3.39-40.62,8.47l-41.12,16.92V165.17l41.12-16.92c16-4.6,32.16-7.74,40.62-7.74C301.52,140.51,315.3,159.37,315.3,187.66Z"/></g></svg>