<svg xmlns="http://www.w3.org/2000/svg" viewBox="0 0 370.65 294.49"><title>Untitled-4</title><g id="Layer_4" data-name="Layer 4"><path d="M166.58,68.14V92.33H43.25V68.14ZM126.68,148c17.66,9,29,28.53,29,49.57,0,32.89-21.52,54.41-54.41,54.41-20.55,0-43.53-9.19-58-23V201.15h2.42c15.24,14.51,37.24,24.18,55.62,24.18,24.91,0,41.11-11.12,41.11-27.81a29.21,29.21,0,0,0-15.72-25.39L43.25,131V106.84Z"/><path d="M254.85,181.8V116.51H279V181.8h48.36v21.77H279v50.78H254.85V203.57h-65.3V68.14h24.18V181.8Z"/></g></svg>