<svg xmlns="http://www.w3.org/2000/svg" viewBox="0 0 370.65 294.49"><title>Untitled-4</title><g id="Layer_4" data-name="Layer 4"><path d="M175.05,70.33V94.51H51.72V70.33Zm-39.9,79.8c17.65,9,29,28.54,29,49.58,0,32.89-21.53,54.41-54.41,54.41-20.56,0-43.53-9.19-58-23V203.34h2.41c15.24,14.51,37.25,24.18,55.63,24.18,24.9,0,41.11-11.12,41.11-27.81a29.2,29.2,0,0,0-15.72-25.39L51.72,133.21V109Z"/><path d="M318.93,70.33V94.51H195.6V70.33ZM279,150.13c17.65,9,29,28.54,29,49.58,0,32.89-21.53,54.41-54.41,54.41-20.56,0-43.53-9.19-58-23V203.34H198c15.23,14.51,37.24,24.18,55.62,24.18,24.9,0,41.11-11.12,41.11-27.81A29.2,29.2,0,0,0,279,174.32L195.6,133.21V109Z"/></g></svg>