<?xml version="1.0" encoding="utf-8"?>
<!-- Generator: Adobe Illustrator 23.0.4, SVG Export Plug-In . SVG Version: 6.00 Build 0)  -->
<svg version="1.1" id="Layer_1" xmlns="http://www.w3.org/2000/svg" xmlns:xlink="http://www.w3.org/1999/xlink" x="0px" y="0px"
	 viewBox="0 0 370.6 294.5" style="enable-background:new 0 0 370.6 294.5;" xml:space="preserve">
<title>Untitled-4</title>
<g id="Layer_4">
	<path d="M175.1,70.3v24.2H51.7V70.3H175.1z M135.1,150.1c17.6,9,29,28.5,29,49.6c0,32.9-21.5,54.4-54.4,54.4
		c-20.6,0-43.5-9.2-58-23v-27.8h2.4c15.2,14.5,37.3,24.2,55.6,24.2c24.9,0,41.1-11.1,41.1-27.8c-0.2-10.7-6.2-20.4-15.7-25.4
		l-83.4-41.1V109L135.1,150.1z"/>
	<path d="M318.9,70.3v24.2H195.6V70.3H318.9z M279,150.1c17.6,9,29,28.5,29,49.6c0,32.9-21.5,54.4-54.4,54.4c-20.6,0-43.5-9.2-58-23
		v-27.8h2.4c15.2,14.5,37.2,24.2,55.6,24.2c24.9,0,41.1-11.1,41.1-27.8c-0.2-10.7-6.2-20.5-15.7-25.4l-83.4-41.1V109L279,150.1z"/>
</g>
</svg>
