<?xml version="1.0" encoding="utf-8"?>
<!-- Generator: Adobe Illustrator 23.0.4, SVG Export Plug-In . SVG Version: 6.00 Build 0)  -->
<svg version="1.1" id="Layer_1" xmlns="http://www.w3.org/2000/svg" xmlns:xlink="http://www.w3.org/1999/xlink" x="0px" y="0px"
	 viewBox="0 0 370.6 294.5" style="enable-background:new 0 0 370.6 294.5;" xml:space="preserve">
<style type="text/css">
	.st0{stroke:#000000;stroke-width:5;stroke-miterlimit:10;}
</style>
<title>Untitled-4</title>
<g id="Layer_4">
	<path class="st0" d="M167.8,66.5v24.2H44.5V66.5H167.8z M127.9,146.3c17.7,9,29,28.5,29,49.6c0,32.9-21.5,54.4-54.4,54.4
		c-20.6,0-43.5-9.2-58-23v-27.8h2.4c15.2,14.5,37.2,24.2,55.6,24.2c24.9,0,41.1-11.1,41.1-27.8c-0.2-10.7-6.2-20.5-15.7-25.4
		l-83.4-41.1v-24.2L127.9,146.3z"/>
	<path class="st0" d="M214.9,110.1h-25.4l42.3-72.6h25.4L214.9,110.1z M326.2,166.1c0,32.4-26.4,53.9-65.8,53.9
		c-39.7,0-66-21.5-66-53.9c0-32.9,26.4-54.9,66-54.9C299.8,111.3,326.2,133.3,326.2,166.1z M312.9,164.9c0-17.6-21-29.5-52.5-29.5
		c-31.7,0-52.7,11.9-52.7,29.5c0,17.2,21,28.5,52.7,28.5C291.9,193.5,312.9,182.1,312.9,164.9L312.9,164.9z"/>
</g>
</svg>
