<svg xmlns="http://www.w3.org/2000/svg" viewBox="0 0 370.65 294.49"><title>Untitled-4</title><g id="Layer_4" data-name="Layer 4"><path d="M167.79,66.52V90.7H44.46V66.52Zm-39.9,79.8c17.66,9,29,28.54,29,49.58,0,32.89-21.52,54.41-54.41,54.41-20.56,0-43.53-9.19-58-23V199.52h2.42C62.11,214,84.12,223.71,102.5,223.71c24.91,0,41.11-11.13,41.11-27.81a29.23,29.23,0,0,0-15.72-25.4L44.46,129.39V105.21Z"/><path d="M214.94,110.05H189.55L231.87,37.5h25.39Zm111.24,56.1c0,32.41-26.35,53.93-65.77,53.93-39.66,0-66-21.52-66-53.93,0-32.89,26.36-54.89,66-54.89C299.83,111.26,326.18,133.26,326.18,166.15Zm-13.3-1.21c0-17.65-21-29.5-52.47-29.5-31.68,0-52.72,11.85-52.72,29.5,0,17.17,21,28.54,52.72,28.54C291.85,193.48,312.88,182.11,312.88,164.94Z"/></g></svg>