<?xml version="1.0" encoding="utf-8"?>
<!-- Generator: Adobe Illustrator 23.0.4, SVG Export Plug-In . SVG Version: 6.00 Build 0)  -->
<svg version="1.1" id="Layer_1" xmlns="http://www.w3.org/2000/svg" xmlns:xlink="http://www.w3.org/1999/xlink" x="0px" y="0px"
	 viewBox="0 0 365 290" style="enable-background:new 0 0 365 290;" xml:space="preserve">
<style type="text/css">
	.st0{stroke:#000000;stroke-width:5;stroke-miterlimit:10;}
</style>
<title>Untitled-4</title>
<g id="Layer_4">
	<path class="st0" d="M139.6,110.5h-25.4l42.3-72.5h25.4L139.6,110.5z M250.8,166.6c0,32.4-26.4,53.9-65.8,53.9
		c-39.7,0-66-21.5-66-53.9c0-32.9,26.4-54.9,66-54.9C224.5,111.7,250.8,133.7,250.8,166.6z M237.5,165.4c0-17.6-21-29.5-52.5-29.5
		c-31.7,0-52.7,11.9-52.7,29.5c0,17.2,21,28.5,52.7,28.5C216.5,193.9,237.5,182.5,237.5,165.4z"/>
</g>
</svg>
