<svg xmlns="http://www.w3.org/2000/svg" viewBox="0 0 365 290"><title>Untitled-4</title><g id="Layer_4" data-name="Layer 4"><path d="M240.54,177.34c0,26.12-23.22,43.53-58,43.53s-58-17.41-58-43.53c0-24.67,23.22-41.11,58-41.11S240.54,152.67,240.54,177.34ZM235.7,81.82c0,23.94-21.28,39.9-53.2,39.9s-53.2-16-53.2-39.9c0-25.39,21.28-42.32,53.2-42.32S235.7,56.43,235.7,81.82Zm-8.46,94.8c0-10.4-17.9-17.42-44.74-17.42s-44.74,7-44.74,17.42c0,10.64,17.9,17.65,44.74,17.65S227.24,187.26,227.24,176.62ZM222.4,82.3c0-9.67-16-16.2-39.9-16.2s-39.9,6.53-39.9,16.2c0,9.92,16,16.45,39.9,16.45S222.4,92.22,222.4,82.3Z"/></g></svg>