<?xml version="1.0" encoding="utf-8"?>
<!-- Generator: Adobe Illustrator 23.0.4, SVG Export Plug-In . SVG Version: 6.00 Build 0)  -->
<svg version="1.1" id="Layer_1" xmlns="http://www.w3.org/2000/svg" xmlns:xlink="http://www.w3.org/1999/xlink" x="0px" y="0px"
	 viewBox="0 0 365 290" style="enable-background:new 0 0 365 290;" xml:space="preserve">
<style type="text/css">
	.st0{stroke:#000000;stroke-width:5;stroke-miterlimit:10;}
</style>
<title>Untitled-4</title>
<g id="Layer_4">
	<path class="st0" d="M240.5,177.3c0,26.1-23.2,43.5-58,43.5s-58-17.4-58-43.5c0-24.7,23.2-41.1,58-41.1S240.5,152.7,240.5,177.3z
		 M235.7,81.8c0,23.9-21.3,39.9-53.2,39.9s-53.2-16-53.2-39.9c0-25.4,21.3-42.3,53.2-42.3S235.7,56.4,235.7,81.8z M227.2,176.6
		c0-10.4-17.9-17.4-44.7-17.4s-44.7,7-44.7,17.4c0,10.6,17.9,17.6,44.7,17.6S227.2,187.3,227.2,176.6L227.2,176.6z M222.4,82.3
		c0-9.7-16-16.2-39.9-16.2s-39.9,6.5-39.9,16.2c0,9.9,16,16.4,39.9,16.4S222.4,92.2,222.4,82.3z"/>
</g>
</svg>
