<?xml version="1.0" encoding="utf-8"?>
<!-- Generator: Adobe Illustrator 23.0.4, SVG Export Plug-In . SVG Version: 6.00 Build 0)  -->
<svg version="1.1" id="Layer_1" xmlns="http://www.w3.org/2000/svg" xmlns:xlink="http://www.w3.org/1999/xlink" x="0px" y="0px"
	 viewBox="0 0 365 290" style="enable-background:new 0 0 365 290;" xml:space="preserve">
<style type="text/css">
	.st0{stroke:#000000;stroke-width:5;stroke-miterlimit:10;}
</style>
<title>Untitled-4</title>
<g id="Layer_4">
	<path class="st0" d="M114.2,124.8c0-32.2,26.4-53.7,66-53.7c39.4,0,65.8,21.5,65.8,53.7c0,33.1-26.3,55.2-65.8,55.2
		C140.5,180,114.2,157.9,114.2,124.8z M127.5,126c0,17.9,21,29.7,52.7,29.7c31.4,0,52.5-11.9,52.5-29.7c0-16.9-21-28.3-52.5-28.3
		C148.5,97.7,127.5,109.1,127.5,126L127.5,126z M225.4,181.2h25.4l-42.3,72.5h-25.4L225.4,181.2z"/>
</g>
</svg>
