<svg xmlns="http://www.w3.org/2000/svg" viewBox="0 0 365 290"><title>Untitled-4</title><g id="Layer_5" data-name="Layer 5"><path d="M101.89,67.85c-2.17,38-14.76,63.67-41.64,63.67H57.59V95.21H58.8c30.5,0,43.09-13.56,43.34-37h34.13V234.9H101.89Z"/><path d="M156.85,149.68v-8.23c0-61.25,31-85.71,69.73-85.71,39.46,0,69.73,25.18,69.73,85.71v8.23c0,64.89-29.3,87.65-69.73,87.65C185.66,237.33,156.85,213.84,156.85,149.68Zm104.35-.48v-7.27c0-42.85-13.8-53.75-34.38-53.75-21.06,0-34.86,12.11-34.86,53.75v7.27c0,43.58,13.07,55.44,34.62,55.44S261.2,192.29,261.2,149.2Z"/></g></svg>