<svg xmlns="http://www.w3.org/2000/svg" viewBox="0 0 365 290"><title>Untitled-4</title><g id="Layer_5" data-name="Layer 5"><path d="M110.85,68.9c-2.18,38-14.77,63.67-41.64,63.67H66.55V96.25h1.21c30.5,0,43.09-13.55,43.34-37h34.13V236H110.85Z"/><path d="M165.81,203.75c30.5-19.61,50.84-34.86,63.92-47.45,20.33-19.13,24.21-31.72,24.21-43.82,0-16.47-10.41-26.15-27.36-26.15-16.22,0-27.84,10.65-33.66,24.94L162.66,96.5c11.86-24,34.38-39.71,64.4-39.71,40.44,0,61.5,22.52,61.5,50.84,0,22.76-12.83,39.47-49.15,60.29-17.92,10.41-41.64,21.79-72.39,35.59H287.59V236H165.81Z"/></g></svg>