<svg xmlns="http://www.w3.org/2000/svg" viewBox="0 0 365 290"><title>Untitled-4</title><g id="Layer_5" data-name="Layer 5"><path d="M109.28,69.42c-2.18,38-14.77,63.68-41.64,63.68H65V96.78h1.21c30.51,0,43.1-13.56,43.34-37h34.14V236.48H109.28Z"/><path d="M188,187.57c8.72,14.29,21.07,20.34,37.29,20.34,24,0,33.17-14.77,33.17-30.27,0-17.67-9.45-30.5-38-30.5H192.56V145.2h26.63c24.46,0,34.63-12.1,34.63-30.5,0-17.19-9.93-28.33-29.54-28.33-16,0-26.39,7-33.17,19.37L162.78,88.79C175.61,69.18,196.92,57.32,224,57.32c38,0,62.7,16,62.7,45.51,0,28.09-28.08,41.65-60.53,43.34,39,.73,64.16,9.68,64.16,41.89,0,28.56-25.18,50.84-65.12,50.84-31.24,0-50.6-9.93-65.86-30.27Z"/></g></svg>