<svg xmlns="http://www.w3.org/2000/svg" viewBox="0 0 365 290"><title>Untitled-4</title><g id="Layer_5" data-name="Layer 5"><path d="M107.83,70.47c-2.18,38-14.77,63.68-41.65,63.68H63.52V97.83h1.21c30.51,0,43.1-13.56,43.34-37h34.14V237.53H107.83Z"/><path d="M227.18,240c-32,0-54.71-13.08-66.82-33.9l32.93-18.64c5.33,12.35,17.19,20.82,33.65,20.82,18.89,0,31.72-12.1,31.72-37.77,0-25.9-12.83-38.25-29.78-38.25-21.06,0-33.9,23-37,37.53l-30.75-5.09,6-103.86H287.47V92.5H196.19l-4.11,71.42c4.36-13.8,16.46-35.1,42.85-35.1,31.48,0,56.41,17.91,56.41,52.54C291.34,216.22,265,240,227.18,240Z"/></g></svg>