<svg xmlns="http://www.w3.org/2000/svg" viewBox="0 0 365 290"><title>Untitled-4</title><g id="Layer_5" data-name="Layer 5"><path d="M102.86,71c-2.17,38-14.76,63.68-41.64,63.68H58.56V98.35h1.21c30.5,0,43.09-13.56,43.34-37h34.13V238.05H102.86Z"/><path d="M231.18,240.47c-52.06,0-73.36-35.59-73.36-86.19,0-62,32.68-95.39,82.08-95.39,23,0,38.49,5.57,52.29,13.8l-16.46,29.78c-9-6.54-19.13-11.62-37.05-11.62-29.53,0-49.39,20.58-49.39,62.7a94.77,94.77,0,0,0,2.18,21.31c2.42-29.78,20.82-46,46.25-46,32.92,0,56.89,17.19,56.89,51.81C294.61,212.63,271.37,240.47,231.18,240.47Zm-38.74-61.74c6.3,20.58,20.34,30,38.74,30,17.43,0,31.47-11.87,31.47-39,0-25.91-12.59-38-30.5-38C212.05,131.76,193.89,147.74,192.44,178.73Z"/></g></svg>