<svg xmlns="http://www.w3.org/2000/svg" viewBox="0 0 365 290"><title>Untitled-4</title><g id="Layer_5" data-name="Layer 5"><path d="M102.5,72c-2.18,38-14.77,63.68-41.64,63.68H58.19V99.4H59.4c30.51,0,43.1-13.56,43.34-37h34.14V239.1H102.5Z"/><path d="M226.7,241.52c-45.52,0-70-17.92-70-47.7,0-32.44,27.84-46.48,68.52-46.72-33.42-.49-62.23-10.41-62.23-40.68,0-27.84,24.7-46.48,64.16-46.48,38.74,0,63.68,19.12,63.68,46.24,0,28.81-26.88,40.19-61.5,40.92,41.16-.24,67.31,13.07,67.31,45.76C296.67,222.64,269.31,241.52,226.7,241.52Zm37.77-60.77c0-19.37-13.08-32.93-37.29-32.93-23.72,0-37.52,13.56-37.52,32.93-.25,17.67,12.83,30.75,36.8,30.75C250.67,211.5,264.47,199.15,264.47,180.75Zm-4.6-63.43c0-16.47-11.38-28.81-32.44-28.81-21.31,0-33.17,12.1-33.17,28.57s10.65,29.05,32.92,29.05C248.73,146.13,259.87,134.27,259.87,117.32Z"/></g></svg>