<svg xmlns="http://www.w3.org/2000/svg" viewBox="0 0 365 290"><title>Untitled-4</title><g id="Layer_5" data-name="Layer 5"><path d="M104.07,72.57c-2.17,38-14.76,63.67-41.64,63.67H59.77V99.93H61c30.5,0,43.09-13.56,43.34-37.05h34.13V239.62H104.07Z"/><path d="M218.1,242c-28.81,0-48.66-10.16-61-22.27l23.49-25.42c8.71,9.68,20.82,15.74,37,15.74,29.78,0,43.1-21.55,43.1-63.68,0-4.6-.25-9-.49-12.83-3.63,26.63-23,38.5-44.3,38.5-34.63,0-58.11-17.92-58.11-50.85,0-33.17,26.15-60.77,63.92-60.77,47.93,0,72.39,32.93,72.39,87.16C294.13,209.6,268.46,242,218.1,242Zm4.36-73.11c16.22,0,34.87-11.38,37-40.68-3.64-25.66-16.23-36.56-37.29-36.56-18.64,0-32.68,12.59-32.68,37.53C189.54,153.67,204.3,168.93,222.46,168.93Z"/></g></svg>