<svg xmlns="http://www.w3.org/2000/svg" viewBox="0 0 365 290"><title>Untitled-4</title><g id="Layer_5" data-name="Layer 5"><path d="M41.73,208c30.51-19.61,50.84-34.87,63.92-47.46,20.34-19.12,24.21-31.71,24.21-43.82,0-16.46-10.41-26.15-27.36-26.15-16.22,0-27.84,10.66-33.65,24.94L38.58,100.69C50.45,76.72,73,61,103,61c40.43,0,61.49,22.51,61.49,50.84,0,22.76-12.83,39.46-49.15,60.29-17.91,10.41-41.64,21.79-72.39,35.59H163.51v32.44H41.73Z"/><path d="M173,154.93v-8.24c0-61.25,31-85.7,69.73-85.7,39.46,0,69.73,25.18,69.73,85.7v8.24c0,64.88-29.3,87.64-69.73,87.64C201.76,242.57,173,219.08,173,154.93Zm104.35-.49v-7.26c0-42.86-13.8-53.75-34.38-53.75-21.06,0-34.86,12.1-34.86,53.75v7.26c0,43.58,13.07,55.44,34.62,55.44S277.3,197.54,277.3,154.44Z"/></g></svg>