<svg xmlns="http://www.w3.org/2000/svg" viewBox="0 0 365 290"><title>Untitled-4</title><g id="Layer_5" data-name="Layer 5"><path d="M50.09,209c30.5-19.61,50.84-34.87,63.91-47.46,20.34-19.12,24.21-31.71,24.21-43.82,0-16.46-10.41-26.15-27.35-26.15-16.23,0-27.85,10.66-33.66,24.94L46.94,101.74C58.8,77.77,81.32,62,111.34,62c40.43,0,61.5,22.51,61.5,50.84,0,22.76-12.84,39.46-49.15,60.28C105.77,183.57,82,195,51.3,208.75H171.87V241.2H50.09Z"/><path d="M182.51,209c30.51-19.61,50.84-34.87,63.92-47.46,20.34-19.12,24.21-31.71,24.21-43.82,0-16.46-10.41-26.15-27.36-26.15-16.22,0-27.84,10.66-33.65,24.94l-30.27-14.77c11.87-24,34.38-39.7,64.41-39.7,40.43,0,61.49,22.51,61.49,50.84,0,22.76-12.83,39.46-49.15,60.28-17.91,10.41-41.64,21.79-72.39,35.59H304.29V241.2H182.51Z"/></g></svg>