<svg xmlns="http://www.w3.org/2000/svg" viewBox="0 0 365 290"><title>Untitled-4</title><g id="Layer_5" data-name="Layer 5"><path d="M48.27,209.52c30.51-19.61,50.84-34.86,63.92-47.45,20.33-19.13,24.21-31.72,24.21-43.82C136.4,101.78,126,92.1,109,92.1,92.82,92.1,81.2,102.75,75.39,117L45.12,102.27C57,78.3,79.5,62.56,109.52,62.56,150,62.56,171,85.08,171,113.4c0,22.76-12.83,39.47-49.15,60.29C104,184.1,80.23,195.48,49.48,209.28H170.05v32.44H48.27Z"/><path d="M204.91,192.82c8.71,14.28,21.06,20.33,37.28,20.33,24,0,33.17-14.77,33.17-30.26,0-17.68-9.44-30.51-38-30.51H209.51v-1.93h26.63c24.45,0,34.62-12.11,34.62-30.51,0-17.19-9.93-28.33-29.54-28.33-16,0-26.39,7-33.17,19.37L179.73,94C192.56,74.42,213.87,62.56,241,62.56c38,0,62.71,16,62.71,45.52,0,28.08-28.09,41.64-60.53,43.33,39,.73,64.16,9.69,64.16,41.89,0,28.57-25.18,50.84-65.13,50.84-31.23,0-50.6-9.92-65.85-30.26Z"/></g></svg>