<svg xmlns="http://www.w3.org/2000/svg" viewBox="0 0 365 290"><title>Untitled-4</title><g id="Layer_5" data-name="Layer 5"><path d="M51.42,210.05c30.5-19.62,50.84-34.87,63.91-47.46,20.34-19.13,24.21-31.71,24.21-43.82,0-16.46-10.41-26.15-27.35-26.15-16.23,0-27.85,10.65-33.66,24.94L48.27,102.79c11.86-24,34.38-39.71,64.4-39.71,40.43,0,61.5,22.52,61.5,50.85,0,22.76-12.84,39.46-49.15,60.28C107.1,184.62,83.37,196,52.63,209.8H173.2v32.45H51.42Z"/><path d="M282.63,197v45.28H249.94V197H160.12V195L248.73,65.5h33.9V195h23V197ZM249.94,195v-81.1L195.23,195Z"/></g></svg>