<svg xmlns="http://www.w3.org/2000/svg" viewBox="0 0 365 290"><title>Untitled-4</title><g id="Layer_5" data-name="Layer 5"><path d="M46.21,210.57c30.51-19.61,50.85-34.86,63.92-47.45,20.34-19.13,24.21-31.72,24.21-43.83,0-16.46-10.41-26.14-27.36-26.14-16.22,0-27.84,10.65-33.65,24.93L43.06,103.31c11.87-24,34.38-39.7,64.41-39.7,40.43,0,61.49,22.51,61.49,50.84,0,22.76-12.83,39.47-49.15,60.29-17.91,10.41-41.64,21.79-72.39,35.59H168v32.44H46.21Z"/><path d="M244.74,245.19c-32,0-54.72-13.07-66.83-33.89l32.93-18.65c5.33,12.35,17.19,20.83,33.65,20.83,18.89,0,31.72-12.11,31.72-37.77,0-25.91-12.83-38.26-29.78-38.26-21.06,0-33.9,23-37,37.53l-30.75-5.08L184.69,66H305V97.75H213.75l-4.12,71.42c4.36-13.8,16.46-35.11,42.85-35.11,31.48,0,56.42,17.92,56.42,52.54C308.9,221.46,282.5,245.19,244.74,245.19Z"/></g></svg>