<svg xmlns="http://www.w3.org/2000/svg" viewBox="0 0 365 290"><title>Untitled-4</title><g id="Layer_5" data-name="Layer 5"><path d="M42.7,211.09c30.51-19.61,50.84-34.86,63.92-47.45,20.34-19.13,24.21-31.72,24.21-43.82,0-16.47-10.41-26.15-27.36-26.15-16.22,0-27.84,10.65-33.65,24.94L39.55,103.84c11.87-24,34.38-39.71,64.4-39.71,40.44,0,61.5,22.52,61.5,50.85,0,22.75-12.83,39.46-49.15,60.28-17.91,10.41-41.64,21.79-72.39,35.59H164.48v32.44H42.7Z"/><path d="M247.28,245.72c-52.06,0-73.36-35.59-73.36-86.2,0-62,32.68-95.39,82.07-95.39,23,0,38.5,5.57,52.3,13.8l-16.46,29.78c-9-6.53-19.13-11.62-37-11.62-29.53,0-49.39,20.58-49.39,62.71a94.62,94.62,0,0,0,2.18,21.3c2.42-29.78,20.82-46,46.25-46,32.92,0,56.89,17.19,56.89,51.81C310.71,217.87,287.47,245.72,247.28,245.72ZM208.54,184c6.3,20.58,20.34,30,38.74,30,17.43,0,31.47-11.86,31.47-39,0-25.91-12.59-38-30.5-38C228.15,137,210,153,208.54,184Z"/></g></svg>