<svg xmlns="http://www.w3.org/2000/svg" viewBox="0 0 365 290"><title>Untitled-4</title><g id="Layer_5" data-name="Layer 5"><path d="M50.45,211.62C81,192,101.29,176.75,114.36,164.16c20.34-19.12,24.21-31.71,24.21-43.82,0-16.46-10.41-26.15-27.35-26.15-16.23,0-27.85,10.66-33.66,24.94L47.3,104.36c11.86-24,34.38-39.7,64.4-39.7,40.43,0,61.5,22.51,61.5,50.84,0,22.76-12.84,39.46-49.15,60.29-17.92,10.41-41.65,21.79-72.39,35.59H172.23v32.44H50.45Z"/><path d="M270.28,99h-91v-32H304.9V96.86l-69,147H200.07Z"/></g></svg>