<svg xmlns="http://www.w3.org/2000/svg" viewBox="0 0 365 290"><title>Untitled-4</title><g id="Layer_5" data-name="Layer 5"><path d="M43.3,212.14c30.51-19.61,50.85-34.86,63.92-47.45,20.34-19.13,24.21-31.72,24.21-43.82,0-16.47-10.41-26.15-27.36-26.15-16.22,0-27.84,10.65-33.65,24.94L40.16,104.89c11.86-24,34.38-39.71,64.4-39.71,40.43,0,61.49,22.52,61.49,50.84,0,22.76-12.83,39.47-49.14,60.29C99,186.72,75.26,198.1,44.52,211.9H165.09v32.44H43.3Z"/><path d="M241.83,246.76c-45.52,0-70-17.91-70-47.69,0-32.44,27.84-46.49,68.52-46.73-33.41-.48-62.22-10.41-62.22-40.67,0-27.85,24.69-46.49,64.16-46.49,38.73,0,63.67,19.13,63.67,46.24,0,28.82-26.87,40.2-61.5,40.92,41.16-.24,67.31,13.08,67.31,45.76C311.8,227.88,284.44,246.76,241.83,246.76ZM279.6,186c0-19.37-13.07-32.93-37.28-32.93-23.73,0-37.53,13.56-37.53,32.93-.24,17.67,12.83,30.74,36.8,30.74C265.8,216.74,279.6,204.4,279.6,186ZM275,122.56c0-16.46-11.38-28.81-32.44-28.81-21.31,0-33.17,12.11-33.17,28.57s10.65,29.05,32.93,29.05C263.86,151.37,275,139.51,275,122.56Z"/></g></svg>