<svg xmlns="http://www.w3.org/2000/svg" viewBox="0 0 365 290"><title>Untitled-4</title><g id="Layer_5" data-name="Layer 5"><path d="M42.94,212.67c30.51-19.61,50.85-34.87,63.92-47.46,20.34-19.12,24.21-31.71,24.21-43.82,0-16.46-10.41-26.15-27.36-26.15-16.22,0-27.84,10.66-33.65,24.94L39.8,105.41c11.86-24,34.37-39.7,64.4-39.7,40.43,0,61.49,22.51,61.49,50.84,0,22.76-12.83,39.46-49.15,60.28-17.91,10.42-41.64,21.8-72.39,35.59H164.72v32.45H42.94Z"/><path d="M235.17,247.29c-28.81,0-48.66-10.17-61-22.28l23.48-25.42c8.72,9.69,20.83,15.74,37.05,15.74,29.78,0,43.09-21.55,43.09-63.67,0-4.6-.24-9-.48-12.84-3.63,26.64-23,38.5-44.31,38.5-34.62,0-58.1-17.92-58.1-50.84,0-33.17,26.14-60.77,63.91-60.77,47.94,0,72.39,32.92,72.39,87.16C311.19,214.85,285.53,247.29,235.17,247.29Zm4.36-73.12c16.22,0,34.86-11.38,37-40.67-3.63-25.67-16.22-36.56-37.28-36.56-18.64,0-32.69,12.59-32.69,37.53C206.6,158.92,221.37,174.17,239.53,174.17Z"/></g></svg>