<svg xmlns="http://www.w3.org/2000/svg" viewBox="0 0 365 290"><title>Untitled-4</title><g id="Layer_5" data-name="Layer 5"><path d="M138.45,182.33c8.72,14.28,21.07,20.33,37.29,20.33,24,0,33.17-14.77,33.17-30.26,0-17.67-9.45-30.51-38-30.51H143.05V140h26.63c24.46,0,34.63-12.11,34.63-30.51,0-17.19-9.93-28.33-29.54-28.33-16,0-26.39,7-33.17,19.37L113.27,83.54c12.83-19.61,34.14-31.47,61.26-31.47,38,0,62.7,16,62.7,45.52,0,28.08-28.08,41.64-60.52,43.34,39,.72,64.15,9.68,64.15,41.88,0,28.57-25.17,50.84-65.12,50.84-31.24,0-50.6-9.92-65.86-30.26Z"/></g></svg>