<svg xmlns="http://www.w3.org/2000/svg" viewBox="0 0 365 290"><title>Untitled-4</title><g id="Layer_5" data-name="Layer 5"><path d="M63.88,196.49c8.72,14.28,21.07,20.33,37.29,20.33,24,0,33.17-14.77,33.17-30.26,0-17.67-9.44-30.51-38-30.51H68.48v-1.93H95.12c24.45,0,34.62-12.11,34.62-30.51,0-17.19-9.93-28.33-29.54-28.33-16,0-26.39,7-33.17,19.37L38.7,97.71C51.54,78.09,72.84,66.23,100,66.23c38,0,62.71,16,62.71,45.52,0,28.08-28.09,41.64-60.53,43.33,39,.73,64.16,9.69,64.16,41.89,0,28.57-25.18,50.84-65.13,50.84-31.23,0-50.6-9.92-65.86-30.26Z"/><path d="M174.52,160.17v-8.23c0-61.26,31-85.71,69.73-85.71,39.46,0,69.73,25.18,69.73,85.71v8.23c0,64.89-29.3,87.64-69.73,87.64C203.33,247.81,174.52,224.33,174.52,160.17Zm104.35-.48v-7.27c0-42.85-13.8-53.75-34.38-53.75-21.06,0-34.86,12.11-34.86,53.75v7.27c0,43.58,13.07,55.44,34.62,55.44S278.87,202.78,278.87,159.69Z"/></g></svg>