<svg xmlns="http://www.w3.org/2000/svg" viewBox="0 0 365 290"><title>Untitled-4</title><g id="Layer_5" data-name="Layer 5"><path d="M88,197c8.72,14.28,21.07,20.34,37.29,20.34,24,0,33.17-14.77,33.17-30.27,0-17.67-9.44-30.5-38-30.5H92.57v-1.94h26.64c24.45,0,34.62-12.1,34.62-30.51,0-17.18-9.93-28.32-29.54-28.32-16,0-26.39,7-33.17,19.37l-28.33-17c12.84-19.61,34.14-31.48,61.26-31.48,38,0,62.71,16,62.71,45.52,0,28.09-28.09,41.65-60.53,43.34,39,.73,64.16,9.68,64.16,41.89,0,28.56-25.18,50.84-65.13,50.84-31.23,0-50.6-9.93-65.86-30.27Z"/><path d="M244.61,78.86c-2.18,38-14.77,63.68-41.64,63.68h-2.66V106.22h1.21c30.5,0,43.09-13.56,43.33-37H279V245.92H244.61Z"/></g></svg>