<svg xmlns="http://www.w3.org/2000/svg" viewBox="0 0 365 290"><title>Untitled-4</title><g id="Layer_5" data-name="Layer 5"><path d="M72.84,197.54c8.72,14.28,21.07,20.33,37.29,20.33,24,0,33.17-14.77,33.17-30.26,0-17.68-9.45-30.51-38-30.51H77.44v-1.93h26.63c24.46,0,34.63-12.11,34.63-30.51,0-17.19-9.93-28.33-29.54-28.33-16,0-26.39,7-33.17,19.37l-28.33-17C60.49,79.14,81.8,67.28,108.92,67.28c38,0,62.7,16,62.7,45.52,0,28.08-28.08,41.64-60.52,43.33,39,.73,64.16,9.69,64.16,41.89,0,28.57-25.18,50.84-65.13,50.84-31.23,0-50.6-9.92-65.86-30.26Z"/><path d="M183.48,214.24c30.51-19.61,50.84-34.86,63.92-47.45,20.34-19.13,24.21-31.72,24.21-43.83,0-16.46-10.41-26.14-27.36-26.14-16.22,0-27.84,10.65-33.65,24.93L180.33,107c11.87-24,34.38-39.71,64.41-39.71,40.43,0,61.49,22.52,61.49,50.84,0,22.76-12.83,39.47-49.15,60.29-17.91,10.41-41.64,21.79-72.39,35.59H305.26v32.44H183.48Z"/></g></svg>