<svg xmlns="http://www.w3.org/2000/svg" viewBox="0 0 365 290"><title>Untitled-4</title><g id="Layer_5" data-name="Layer 5"><path d="M71.27,198.06C80,212.34,92.33,218.4,108.55,218.4c24,0,33.17-14.77,33.17-30.27,0-17.67-9.44-30.5-38-30.5H75.87v-1.94H102.5c24.45,0,34.62-12.11,34.62-30.51,0-17.19-9.92-28.32-29.53-28.32-16,0-26.39,7-33.17,19.37l-28.33-17C58.92,79.67,80.23,67.8,107.34,67.8c38,0,62.71,16,62.71,45.52,0,28.09-28.08,41.64-60.53,43.34,39,.72,64.16,9.68,64.16,41.88,0,28.57-25.18,50.85-65.13,50.85-31.23,0-50.6-9.93-65.85-30.27Z"/><path d="M205.63,198.06c8.72,14.28,21.07,20.34,37.29,20.34,24,0,33.17-14.77,33.17-30.27,0-17.67-9.44-30.5-38-30.5H210.23v-1.94h26.64c24.45,0,34.62-12.11,34.62-30.51,0-17.19-9.93-28.32-29.54-28.32-16,0-26.39,7-33.17,19.37l-28.32-17c12.83-19.61,34.13-31.48,61.25-31.48,38,0,62.71,16,62.71,45.52,0,28.09-28.09,41.64-60.53,43.34,39,.72,64.16,9.68,64.16,41.88,0,28.57-25.18,50.85-65.13,50.85-31.23,0-50.6-9.93-65.85-30.27Z"/></g></svg>