<svg xmlns="http://www.w3.org/2000/svg" viewBox="0 0 365 290"><title>Untitled-4</title><g id="Layer_5" data-name="Layer 5"><path d="M62.8,198.58c8.71,14.29,21.06,20.34,37.28,20.34,24,0,33.17-14.77,33.17-30.26,0-17.68-9.44-30.51-38-30.51H67.4v-1.94H94c24.45,0,34.62-12.1,34.62-30.5,0-17.19-9.93-28.33-29.54-28.33-16,0-26.39,7-33.17,19.37l-28.32-17C50.45,80.19,71.75,68.33,98.87,68.33c38,0,62.71,16,62.71,45.51,0,28.09-28.09,41.65-60.53,43.34,39,.73,64.16,9.69,64.16,41.89,0,28.57-25.18,50.84-65.13,50.84-31.23,0-50.6-9.93-65.85-30.26Z"/><path d="M295,202.22v45.27H262.29V202.22H172.47v-1.94L261.08,70.75H295V200.28h23v1.94Zm-32.68-1.94V119.17l-54.72,81.11Z"/></g></svg>