<svg xmlns="http://www.w3.org/2000/svg" viewBox="0 0 365 290"><title>Untitled-4</title><g id="Layer_5" data-name="Layer 5"><path d="M69.09,199.11c8.72,14.28,21.06,20.34,37.29,20.34,24,0,33.17-14.77,33.17-30.27,0-17.67-9.45-30.5-38-30.5H73.69v-1.94h26.63c24.46,0,34.63-12.11,34.63-30.51C135,109,125,97.91,105.41,97.91c-16,0-26.39,7-33.17,19.36L43.91,100.33c12.83-19.61,34.14-31.48,61.26-31.48,38,0,62.7,16,62.7,45.52,0,28.08-28.08,41.64-60.53,43.34,39,.72,64.16,9.68,64.16,41.88,0,28.57-25.18,50.85-65.12,50.85-31.24,0-50.61-9.93-65.86-30.27Z"/><path d="M245.58,250.44c-32,0-54.71-13.08-66.82-33.9l32.93-18.64c5.32,12.35,17.19,20.82,33.65,20.82,18.89,0,31.72-12.11,31.72-37.77,0-25.91-12.83-38.25-29.78-38.25-21.07,0-33.9,23-37,37.52l-30.75-5.08,6-103.87H305.87V103H214.59l-4.11,71.42c4.35-13.8,16.46-35.1,42.85-35.1,31.48,0,56.41,17.91,56.41,52.53C309.74,226.71,283.35,250.44,245.58,250.44Z"/></g></svg>