<svg xmlns="http://www.w3.org/2000/svg" viewBox="0 0 365 290"><title>Untitled-4</title><g id="Layer_5" data-name="Layer 5"><path d="M64.85,199.63C73.57,213.92,85.92,220,102.14,220c24,0,33.17-14.77,33.17-30.26,0-17.68-9.44-30.51-38-30.51H69.45v-1.94H96.09c24.45,0,34.62-12.1,34.62-30.5,0-17.19-9.93-28.33-29.54-28.33-16,0-26.39,7-33.17,19.37l-28.33-17c12.84-19.61,34.14-31.47,61.26-31.47,38,0,62.71,16,62.71,45.51,0,28.09-28.09,41.65-60.53,43.34,39,.73,64.16,9.69,64.16,41.89,0,28.57-25.18,50.84-65.13,50.84-31.23,0-50.6-9.93-65.86-30.26Z"/><path d="M248.85,251c-52,0-73.36-35.59-73.36-86.19,0-62,32.69-95.39,82.08-95.39,23,0,38.49,5.57,52.29,13.8L293.4,113c-9-6.54-19.13-11.62-37-11.62-29.54,0-49.39,20.58-49.39,62.7a94.2,94.2,0,0,0,2.18,21.31c2.42-29.78,20.82-46,46.24-46,32.93,0,56.9,17.19,56.9,51.81C312.29,223.12,289,251,248.85,251Zm-38.74-61.74c6.3,20.58,20.34,30,38.74,30,17.43,0,31.48-11.86,31.48-39,0-25.9-12.59-38-30.51-38C229.73,142.25,211.57,158.23,210.11,189.22Z"/></g></svg>