<svg xmlns="http://www.w3.org/2000/svg" viewBox="0 0 365 290"><title>Untitled-4</title><g id="Layer_5" data-name="Layer 5"><path d="M73.57,200.16c8.71,14.28,21.06,20.33,37.28,20.33,24,0,33.17-14.76,33.17-30.26,0-17.67-9.44-30.51-38-30.51H78.17v-1.93H104.8c24.45,0,34.62-12.11,34.62-30.51,0-17.19-9.92-28.33-29.53-28.33-16,0-26.4,7-33.17,19.37L48.39,101.38C61.22,81.76,82.53,69.9,109.64,69.9c38,0,62.71,16,62.71,45.52,0,28.08-28.09,41.64-60.53,43.34,39,.72,64.16,9.68,64.16,41.88,0,28.57-25.18,50.84-65.13,50.84-31.23,0-50.6-9.92-65.85-30.26Z"/><path d="M270.88,104.28h-91v-32H305.51V102.1l-69,147H200.67Z"/></g></svg>