<svg xmlns="http://www.w3.org/2000/svg" viewBox="0 0 365 290"><title>Untitled-4</title><g id="Layer_5" data-name="Layer 5"><path d="M64.49,200.68C73.21,215,85.55,221,101.77,221c24,0,33.17-14.77,33.17-30.27,0-17.67-9.44-30.5-38-30.5H69.09v-1.94H95.72c24.46,0,34.62-12.1,34.62-30.5,0-17.19-9.92-28.33-29.53-28.33-16,0-26.39,7-33.17,19.37L39.31,101.9c12.83-19.61,34.14-31.47,61.25-31.47,38,0,62.71,16,62.71,45.51,0,28.09-28.08,41.65-60.53,43.34,39,.73,64.16,9.68,64.16,41.89,0,28.56-25.18,50.84-65.13,50.84-31.23,0-50.6-9.93-65.85-30.26Z"/><path d="M244.37,252c-45.51,0-70-17.92-70-47.7,0-32.44,27.85-46.48,68.52-46.72-33.41-.49-62.22-10.42-62.22-40.68,0-27.84,24.69-46.48,64.16-46.48,38.73,0,63.67,19.12,63.67,46.24,0,28.81-26.87,40.19-61.49,40.92,41.15-.25,67.3,13.07,67.3,45.75C314.34,233.12,287,252,244.37,252Zm37.77-60.77c0-19.37-13.07-32.93-37.28-32.93-23.73,0-37.53,13.56-37.53,32.93-.24,17.67,12.83,30.75,36.8,30.75C268.34,222,282.14,209.64,282.14,191.24Zm-4.6-63.43c0-16.47-11.38-28.81-32.44-28.81-21.31,0-33.17,12.1-33.17,28.56s10.65,29.06,32.93,29.06C266.4,156.62,277.54,144.75,277.54,127.81Z"/></g></svg>