<svg xmlns="http://www.w3.org/2000/svg" viewBox="0 0 365 290"><title>Untitled-4</title><g id="Layer_5" data-name="Layer 5"><path d="M66.91,201.21c8.72,14.28,21.06,20.33,37.28,20.33,24,0,33.17-14.77,33.17-30.26,0-17.67-9.44-30.51-38-30.51H71.51v-1.93H98.14c24.45,0,34.62-12.11,34.62-30.51,0-17.19-9.92-28.33-29.53-28.33-16,0-26.39,7-33.17,19.37l-28.33-17C54.56,82.81,75.87,71,103,71c38,0,62.71,16,62.71,45.52,0,28.08-28.08,41.64-60.53,43.33,39,.73,64.16,9.69,64.16,41.89,0,28.57-25.18,50.84-65.13,50.84-31.23,0-50.6-9.92-65.85-30.26Z"/><path d="M234.93,252.53c-28.81,0-48.66-10.16-61-22.27l23.48-25.42c8.72,9.68,20.83,15.74,37,15.74,29.78,0,43.09-21.55,43.09-63.68,0-4.6-.24-9-.48-12.83-3.63,26.63-23,38.49-44.31,38.49-34.62,0-58.1-17.91-58.1-50.84,0-33.17,26.14-60.77,63.91-60.77C286.5,71,311,103.88,311,158.11,311,220.09,285.29,252.53,234.93,252.53Zm4.36-73.11c16.22,0,34.86-11.38,37-40.68-3.63-25.66-16.22-36.56-37.28-36.56-18.65,0-32.69,12.59-32.69,37.53C206.36,164.16,221.13,179.42,239.29,179.42Z"/></g></svg>