<svg xmlns="http://www.w3.org/2000/svg" viewBox="0 0 365 290"><title>Untitled-4</title><g id="Layer_5" data-name="Layer 5"><path d="M153.34,205.36v45.28H120.66V205.36H30.83v-1.94L119.45,73.9h33.89V203.42h23v1.94Zm-32.68-1.94v-81.1l-54.72,81.1Z"/><path d="M177.79,165.41v-8.23c0-61.25,31-85.71,69.73-85.71,39.46,0,69.73,25.18,69.73,85.71v8.23c0,64.89-29.3,87.65-69.73,87.65C206.6,253.06,177.79,229.57,177.79,165.41Zm104.35-.48v-7.26c0-42.86-13.8-53.75-34.38-53.75-21.06,0-34.86,12.1-34.86,53.75v7.26c0,43.58,13.07,55.44,34.62,55.44S282.14,208,282.14,164.93Z"/></g></svg>