<svg xmlns="http://www.w3.org/2000/svg" viewBox="0 0 365 290"><title>Untitled-4</title><g id="Layer_5" data-name="Layer 5"><path d="M162.91,206.41v45.28H130.22V206.41H40.4v-1.94L129,74.94h33.9V204.47h23v1.94Zm-32.69-1.94v-81.1l-54.71,81.1Z"/><path d="M186.15,219.48c30.5-19.61,50.84-34.86,63.91-47.45,20.34-19.13,24.21-31.72,24.21-43.82,0-16.46-10.41-26.15-27.35-26.15-16.23,0-27.85,10.65-33.66,24.94L183,112.23c11.86-24,34.38-39.71,64.4-39.71,40.43,0,61.5,22.52,61.5,50.85,0,22.75-12.84,39.46-49.15,60.28-17.92,10.41-41.65,21.79-72.39,35.59H307.93v32.45H186.15Z"/></g></svg>