<svg xmlns="http://www.w3.org/2000/svg" viewBox="0 0 365 290"><title>Untitled-4</title><g id="Layer_5" data-name="Layer 5"><path d="M164.36,206.94v45.27H131.67V206.94H41.85V205L130.46,75.47h33.9V205h23v1.94ZM131.67,205V123.89L77,205Z"/><path d="M205.27,203.3c8.72,14.29,21.07,20.34,37.29,20.34,24,0,33.17-14.77,33.17-30.26,0-17.68-9.45-30.51-38-30.51H209.87v-1.94H236.5c24.46,0,34.63-12.1,34.63-30.5,0-17.19-9.93-28.33-29.54-28.33-16,0-26.39,7-33.17,19.37l-28.33-17c12.83-19.61,34.14-31.47,61.26-31.47,38,0,62.7,16,62.7,45.51,0,28.09-28.08,41.65-60.52,43.34,39,.73,64.16,9.69,64.16,41.89,0,28.57-25.18,50.84-65.13,50.84-31.23,0-50.6-9.93-65.86-30.26Z"/></g></svg>