<svg xmlns="http://www.w3.org/2000/svg" viewBox="0 0 365 290"><title>Untitled-4</title><g id="Layer_5" data-name="Layer 5"><path d="M161.7,208v45.28H129V208H39.19v-1.93L127.8,76.52h33.9V206.05h23V208ZM129,206.05V124.94L74.3,206.05Z"/><path d="M245.71,255.68c-32,0-54.72-13.07-66.83-33.9l32.93-18.64C217.14,215.49,229,224,245.46,224c18.89,0,31.72-12.1,31.72-37.77,0-25.9-12.83-38.25-29.78-38.25-21.06,0-33.9,23-37,37.53l-30.75-5.09,6-103.86H306v31.71H214.71l-4.11,71.43c4.36-13.8,16.46-35.11,42.85-35.11,31.48,0,56.41,17.92,56.41,52.54C309.86,232,283.47,255.68,245.71,255.68Z"/></g></svg>