<svg xmlns="http://www.w3.org/2000/svg" viewBox="0 0 370.65 294.49"><title>Untitled-4</title><g id="Layer_5" data-name="Layer 5"><path d="M157.14,210.75V256H124.45V210.75H34.63v-1.94L123.24,79.29h33.9V208.81h23v1.94Zm-32.69-1.94v-81.1l-54.72,81.1Z"/><path d="M254.94,258.45c-52.05,0-73.36-35.59-73.36-86.19,0-62,32.69-95.4,82.08-95.4,23,0,38.5,5.57,52.3,13.8l-16.47,29.78c-8.95-6.53-19.12-11.62-37-11.62-29.54,0-49.39,20.58-49.39,62.71a94.62,94.62,0,0,0,2.18,21.3c2.42-29.77,20.82-46,46.24-46,32.93,0,56.9,17.19,56.9,51.82C318.38,230.6,295.14,258.45,254.94,258.45Zm-38.73-61.74c6.29,20.58,20.33,30,38.73,30,17.44,0,31.48-11.86,31.48-39,0-25.91-12.59-38-30.51-38C235.82,149.74,217.66,165.72,216.21,196.71Z"/></g></svg>