<svg xmlns="http://www.w3.org/2000/svg" viewBox="0 0 370.65 294.49"><title>Untitled-4</title><g id="Layer_5" data-name="Layer 5"><path d="M154.11,203.8v45.28H121.43V203.8H31.6v-1.94L120.22,72.33h33.89V201.86h23v1.94Zm-32.68-1.94v-81.1l-54.72,81.1Z"/><path d="M253.13,251.5c-45.52,0-70-17.92-70-47.7,0-32.44,27.84-46.48,68.51-46.73-33.41-.48-62.22-10.41-62.22-40.67,0-27.84,24.7-46.49,64.16-46.49,38.74,0,63.68,19.13,63.68,46.25,0,28.81-26.88,40.19-61.5,40.91,41.16-.24,67.31,13.08,67.31,45.76C323.1,232.61,295.74,251.5,253.13,251.5Zm37.77-60.77c0-19.37-13.08-32.93-37.29-32.93-23.73,0-37.53,13.56-37.53,32.93-.24,17.67,12.84,30.74,36.8,30.74C277.1,221.47,290.9,209.13,290.9,190.73Zm-4.6-63.44c0-16.46-11.38-28.81-32.45-28.81-21.3,0-33.17,12.11-33.17,28.57s10.66,29.05,32.93,29.05C275.16,156.1,286.3,144.24,286.3,127.29Z"/></g></svg>