<svg xmlns="http://www.w3.org/2000/svg" viewBox="0 0 370.65 294.49"><title>Untitled-4</title><g id="Layer_5" data-name="Layer 5"><path d="M162.46,204.33V249.6H129.78V204.33H40v-1.94L128.57,72.86h33.89V202.39h23v1.94Zm-32.68-1.94V121.28L75.06,202.39Z"/><path d="M237.75,252c-28.81,0-48.66-10.17-61-22.27l23.49-25.42c8.71,9.68,20.82,15.73,37,15.73,29.78,0,43.09-21.55,43.09-63.67,0-4.6-.24-9-.48-12.84-3.63,26.64-23,38.5-44.31,38.5-34.62,0-58.1-17.92-58.1-50.84,0-33.17,26.15-60.77,63.91-60.77,47.94,0,72.4,32.92,72.4,87.16C313.78,219.58,288.11,252,237.75,252Zm4.36-73.12c16.22,0,34.87-11.38,37-40.67-3.63-25.67-16.22-36.56-37.28-36.56-18.64,0-32.69,12.59-32.69,37.53C209.18,163.65,224,178.9,242.11,178.9Z"/></g></svg>