<svg xmlns="http://www.w3.org/2000/svg" viewBox="0 0 370.65 294.49"><title>Untitled-4</title><g id="Layer_5" data-name="Layer 5"><path d="M105.93,251.54c-32,0-54.72-13.07-66.82-33.89L72,199c5.33,12.34,17.19,20.82,33.66,20.82,18.88,0,31.71-12.11,31.71-37.77,0-25.91-12.83-38.25-29.78-38.25-21.06,0-33.89,23-37,37.52l-30.75-5.08L45.89,72.38H166.22V104.1H74.94l-4.12,71.42c4.36-13.8,16.47-35.1,42.86-35.1,31.47,0,56.41,17.91,56.41,52.53C170.09,227.82,143.7,251.54,105.93,251.54Z"/><path d="M178.8,163.9v-8.23c0-61.26,31-85.71,69.73-85.71,39.46,0,69.72,25.18,69.72,85.71v8.23c0,64.89-29.29,87.64-69.72,87.64C207.61,251.54,178.8,228.06,178.8,163.9Zm104.35-.48v-7.27c0-42.85-13.8-53.75-34.38-53.75-21.07,0-34.87,12.11-34.87,53.75v7.27c0,43.58,13.08,55.44,34.63,55.44S283.15,206.51,283.15,163.42Z"/></g></svg>