<svg xmlns="http://www.w3.org/2000/svg" viewBox="0 0 370.65 294.49"><title>Untitled-4</title><g id="Layer_5" data-name="Layer 5"><path d="M134.86,252.07c-32,0-54.72-13.07-66.82-33.9L101,199.53c5.32,12.35,17.19,20.82,33.65,20.82,18.88,0,31.72-12.1,31.72-37.77,0-25.9-12.84-38.25-29.78-38.25-21.07,0-33.9,23-37,37.53l-30.75-5.09L74.82,72.91H195.15v31.71H103.87l-4.11,71.43c4.35-13.8,16.46-35.11,42.85-35.11,31.47,0,56.41,17.92,56.41,52.54C199,228.34,172.63,252.07,134.86,252.07Z"/><path d="M244.05,82.59c-2.18,38-14.77,63.68-41.65,63.68h-2.66V110H201c30.51,0,43.1-13.56,43.34-37h34.14V249.65H244.05Z"/></g></svg>