<svg xmlns="http://www.w3.org/2000/svg" viewBox="0 0 370.65 294.49"><title>Untitled-4</title><g id="Layer_5" data-name="Layer 5"><path d="M114.89,250.59c-32,0-54.72-13.07-66.82-33.89L81,198.06c5.33,12.34,17.19,20.82,33.66,20.82,18.88,0,31.71-12.11,31.71-37.77,0-25.91-12.83-38.26-29.78-38.26-21.06,0-33.89,23-37,37.53L48.79,175.3,54.84,71.43H175.17v31.72H83.9l-4.12,71.42c4.36-13.8,16.47-35.11,42.86-35.11,31.47,0,56.41,17.92,56.41,52.54C179.05,226.87,152.66,250.59,114.89,250.59Z"/><path d="M187.76,216c30.5-19.61,50.84-34.86,63.91-47.45,20.34-19.13,24.21-31.72,24.21-43.82,0-16.47-10.41-26.15-27.35-26.15-16.23,0-27.85,10.65-33.66,24.94l-30.26-14.77C196.47,84.75,219,69,249,69c40.43,0,61.5,22.52,61.5,50.84,0,22.76-12.84,39.47-49.15,60.29-17.92,10.41-41.64,21.79-72.39,35.59H309.54v32.44H187.76Z"/></g></svg>