<svg xmlns="http://www.w3.org/2000/svg" viewBox="0 0 370.65 294.49"><title>Untitled-4</title><g id="Layer_5" data-name="Layer 5"><path d="M113.31,252.12c-31.95,0-54.71-13.08-66.82-33.9l32.93-18.64c5.33,12.35,17.19,20.82,33.65,20.82,18.89,0,31.72-12.1,31.72-37.77,0-25.9-12.83-38.25-29.78-38.25-21.06,0-33.9,23-37,37.53l-30.75-5.09L53.27,73H173.6v31.71H82.32L78.21,176.1C82.57,162.29,94.67,141,121.06,141c31.48,0,56.41,17.92,56.41,52.54C177.47,228.39,151.08,252.12,113.31,252.12Z"/><path d="M209.91,200.79c8.72,14.29,21.06,20.34,37.28,20.34,24,0,33.17-14.77,33.17-30.27,0-17.67-9.44-30.5-38-30.5H214.51v-1.94h26.63c24.46,0,34.62-12.1,34.62-30.51,0-17.18-9.92-28.32-29.53-28.32-16,0-26.39,7-33.17,19.37L184.73,102C197.56,82.4,218.87,70.54,246,70.54c38,0,62.71,16,62.71,45.51,0,28.09-28.08,41.65-60.53,43.34,39,.73,64.16,9.68,64.16,41.89,0,28.56-25.18,50.84-65.13,50.84-31.23,0-50.6-9.93-65.85-30.27Z"/></g></svg>