<svg xmlns="http://www.w3.org/2000/svg" viewBox="0 0 370.65 294.49"><title>Untitled-4</title><g id="Layer_5" data-name="Layer 5"><path d="M105.33,252.64c-32,0-54.72-13.07-66.83-33.89L71.43,200.1c5.33,12.35,17.19,20.83,33.65,20.83,18.89,0,31.72-12.11,31.72-37.77,0-25.91-12.83-38.26-29.78-38.26-21.06,0-33.89,23-37,37.53l-30.75-5.08L45.28,73.48H165.61V105.2H74.34l-4.12,71.42c4.36-13.8,16.46-35.11,42.85-35.11,31.48,0,56.42,17.92,56.42,52.54C169.49,228.92,143.1,252.64,105.33,252.64Z"/><path d="M298.76,205v45.27H266.08V205H176.26V203L264.87,73.48h33.89V203h23V205ZM266.08,203V121.9L211.36,203Z"/></g></svg>