<svg xmlns="http://www.w3.org/2000/svg" viewBox="0 0 370.65 294.49"><title>Untitled-4</title><g id="Layer_5" data-name="Layer 5"><path d="M111.5,255.17c-32,0-54.72-13.08-66.82-33.9l32.93-18.64c5.32,12.35,17.19,20.82,33.65,20.82,18.88,0,31.72-12.11,31.72-37.77,0-25.9-12.84-38.25-29.78-38.25-21.07,0-33.9,23-37,37.52L45.4,179.87,51.46,76H171.79v31.72H80.51l-4.12,71.42c4.36-13.8,16.47-35.1,42.86-35.1,31.47,0,56.41,17.91,56.41,52.54C175.66,231.44,149.27,255.17,111.5,255.17Z"/><path d="M249.49,255.17c-32,0-54.71-13.08-66.82-33.9l32.93-18.64c5.33,12.35,17.19,20.82,33.65,20.82,18.89,0,31.72-12.11,31.72-37.77,0-25.9-12.83-38.25-29.78-38.25-21.06,0-33.9,23-37,37.52l-30.75-5.08,6-103.87H309.78v31.72H218.5l-4.11,71.42c4.36-13.8,16.46-35.1,42.85-35.1,31.48,0,56.41,17.91,56.41,52.54C313.65,231.44,287.26,255.17,249.49,255.17Z"/></g></svg>