<svg xmlns="http://www.w3.org/2000/svg" viewBox="0 0 370.65 294.49"><title>Untitled-4</title><g id="Layer_5" data-name="Layer 5"><path d="M106.9,251.69c-32,0-54.72-13.07-66.82-33.89L73,199.15C78.33,211.5,90.19,220,106.66,220c18.88,0,31.71-12.1,31.71-37.76,0-25.91-12.83-38.26-29.78-38.26-21.06,0-33.89,23-37,37.53L40.8,176.4,46.86,72.53H167.19v31.72H75.91l-4.12,71.42c4.36-13.8,16.47-35.11,42.86-35.11,31.47,0,56.41,17.92,56.41,52.54C171.06,228,144.67,251.69,106.9,251.69Z"/><path d="M253.13,251.69c-52.06,0-73.36-35.59-73.36-86.19,0-62,32.68-95.39,82.07-95.39,23,0,38.5,5.57,52.3,13.8l-16.46,29.78c-9-6.54-19.13-11.62-37.05-11.62-29.53,0-49.39,20.58-49.39,62.7a94.77,94.77,0,0,0,2.18,21.31c2.42-29.78,20.82-46,46.24-46,32.93,0,56.9,17.19,56.9,51.81C316.56,223.85,293.32,251.69,253.13,251.69ZM214.39,190c6.29,20.58,20.34,30,38.74,30,17.43,0,31.47-11.86,31.47-39,0-25.91-12.59-38-30.5-38C234,143,215.84,159,214.39,190Z"/></g></svg>