<svg xmlns="http://www.w3.org/2000/svg" viewBox="0 0 365 290"><title>Untitled-4</title><g id="Layer_5" data-name="Layer 5"><path d="M181.67,235.23c-52,0-73.36-35.59-73.36-86.19,0-62,32.68-95.4,82.08-95.4,23,0,38.49,5.57,52.29,13.8L226.22,97.22c-9-6.53-19.13-11.62-37.05-11.62-29.53,0-49.39,20.58-49.39,62.71A94.77,94.77,0,0,0,142,169.62c2.42-29.78,20.82-46,46.25-46,32.92,0,56.89,17.19,56.89,51.82C245.1,207.38,221.86,235.23,181.67,235.23Zm-38.74-61.74c6.3,20.58,20.34,30,38.74,30,17.43,0,31.47-11.86,31.47-39,0-25.9-12.59-38-30.5-38C162.54,126.52,144.38,142.5,142.93,173.49Z"/></g></svg>