<svg xmlns="http://www.w3.org/2000/svg" viewBox="0 0 365 290"><title>Untitled-4</title><g id="Layer_5" data-name="Layer 5"><path d="M177.19,236.28c-45.52,0-70-17.92-70-47.7,0-32.44,27.84-46.48,68.52-46.73-33.41-.48-62.23-10.41-62.23-40.67,0-27.84,24.7-46.49,64.16-46.49,38.74,0,63.68,19.13,63.68,46.25,0,28.81-26.88,40.19-61.5,40.91,41.16-.24,67.31,13.08,67.31,45.76C247.16,217.39,219.8,236.28,177.19,236.28ZM215,175.51c0-19.37-13.07-32.93-37.29-32.93-23.72,0-37.52,13.56-37.52,32.93-.25,17.67,12.83,30.74,36.8,30.74C201.16,206.25,215,193.91,215,175.51Zm-4.6-63.44c0-16.46-11.38-28.81-32.44-28.81-21.31,0-33.17,12.11-33.17,28.57s10.65,29.05,32.92,29.05C199.22,140.88,210.36,129,210.36,112.07Z"/></g></svg>