<svg xmlns="http://www.w3.org/2000/svg" viewBox="0 0 365 290"><title>Untitled-4</title><g id="Layer_5" data-name="Layer 5"><path d="M168.59,236.8c-28.81,0-48.66-10.17-61-22.27l23.49-25.43c8.71,9.69,20.82,15.74,37,15.74,29.78,0,43.1-21.55,43.1-63.67,0-4.6-.25-9-.49-12.83-3.63,26.63-23,38.49-44.3,38.49-34.63,0-58.11-17.92-58.11-50.84,0-33.17,26.15-60.77,63.92-60.77,47.93,0,72.39,32.92,72.39,87.16C244.62,204.36,219,236.8,168.59,236.8ZM173,163.68c16.22,0,34.87-11.38,37.05-40.67-3.64-25.67-16.23-36.56-37.29-36.56C154.07,86.45,140,99,140,124,140,148.43,154.79,163.68,173,163.68Z"/></g></svg>